/* XPM */
static char *_fd6d13c3e934ce6b5727fe0bdc46fb8tbwL8V7orvIgCblS[] = {
/* columns rows colors chars-per-pixel */
"64 64 205 2 ",
"   c black",
".  c black",
"X  c #030100",
"o  c #282B2A",
"O  c #020202",
"+  c #050504",
"@  c #3C4040",
"#  c #2A2A27",
"$  c #232422",
"%  c #21211F",
"&  c #212322",
"*  c #070502",
"=  c #252827",
"-  c #393B3A",
";  c #242625",
":  c #393D3E",
">  c #1E201F",
",  c #262521",
"<  c #404647",
"1  c #1E1E1B",
"2  c #596C24",
"3  c #5B6E26",
"4  c #3D4243",
"5  c #7B3C0B",
"6  c #3E403F",
"7  c #2E2E2B",
"8  c #141512",
"9  c #2B2C2A",
"0  c #3F4445",
"q  c #161614",
"w  c #566722",
"e  c #282724",
"r  c #77390A",
"t  c #404342",
"y  c #2D2F2D",
"u  c #2F3130",
"i  c #3A3F40",
"p  c #32322E",
"a  c #1A1A17",
"s  c #323433",
"d  c #0A0904",
"f  c #24221E",
"g  c #2A2D2C",
"h  c #181816",
"j  c #43494A",
"k  c #424240",
"l  c #211E1A",
"z  c #52621F",
"x  c #1B1C1A",
"c  c #465217",
"v  c #383632",
"b  c #121211",
"n  c #EDC580",
"m  c #080909",
"M  c #4A571A",
"N  c #87430F",
"B  c #4E5D1D",
"V  c #060706",
"C  c #424D15",
"Z  c #10100E",
"A  c #413F3C",
"S  c #693208",
"D  c #12100D",
"F  c #F3B46D",
"G  c #0D0B07",
"H  c #363B3C",
"J  c #1A1D1D",
"K  c #6F3509",
"L  c #0F0D0B",
"P  c #733709",
"I  c #8C460F",
"U  c #0C0D0D",
"Y  c #0A0B0B",
"T  c #EEC783",
"R  c #EDA860",
"E  c #F1B069",
"W  c #EEA35C",
"Q  c #18130F",
"!  c #3D3B36",
"~  c #383937",
"^  c #333837",
"/  c #7F3F0E",
"(  c #1B1814",
")  c #EBC37C",
"_  c #444544",
"`  c #9B4E12",
"'  c #83410E",
"]  c #F5BA73",
"[  c #3C3D3C",
"{  c #F0AB64",
"}  c #E8BD76",
"|  c #34302B",
" . c #944A10",
".. c #D18945",
"X. c #E3B770",
"o. c #EB9E57",
"O. c #291605",
"+. c #E79951",
"@. c #E8A45B",
"#. c #592C09",
"$. c #CB8B49",
"%. c #E2964F",
"&. c #E08945",
"*. c None",
"=. c #DB904B",
"-. c #CD7B38",
";. c #494847",
":. c #302E29",
">. c #484C4C",
",. c #484541",
"<. c #211707",
"1. c #5E5317",
"2. c #512908",
"3. c #B86F2F",
"4. c #403D38",
"5. c #C47231",
"6. c #D4833E",
"7. c #7E4517",
"8. c #1B0E03",
"9. c #C47D3C",
"0. c #B06F33",
"q. c #73390C",
"w. c #482607",
"e. c #5B6921",
"r. c #965924",
"t. c #BF7636",
"y. c #482B12",
"u. c #BB7E3E",
"i. c #91521F",
"p. c #AE8547",
"a. c #C18444",
"s. c #884A18",
"d. c #623009",
"f. c #5E3612",
"g. c #A5642A",
"h. c #B36A2D",
"j. c #342C22",
"k. c #231D11",
"l. c #56601E",
"z. c #553113",
"x. c #EEAD65",
"c. c #484712",
"v. c #A47034",
"b. c #DBA35D",
"n. c #7B5720",
"m. c #D1914E",
"M. c #5D5A1B",
"N. c #D89854",
"B. c #000100",
"V. c #9F6027",
"C. c #3E2109",
"Z. c #AD6629",
"A. c #56571A",
"S. c #6C571D",
"D. c #764919",
"F. c #394112",
"G. c #544912",
"H. c #3C332A",
"J. c #3A4142",
"K. c #CA8341",
"L. c #E5CFA7",
"P. c #2A2319",
"I. c #DCAD6A",
"U. c #41372C",
"Y. c #D9AA65",
"T. c #7E6327",
"R. c #2F1C0D",
"E. c #715A21",
"W. c #EAC17A",
"Q. c #C99954",
"!. c #4E5016",
"~. c #3E2611",
"^. c #33281A",
"/. c #D39F59",
"(. c #3F4223",
"). c #353418",
"_. c #533C1A",
"`. c #CA9F5D",
"'. c #906E36",
"]. c #8B551E",
"[. c #282B27",
"{. c #BD904E",
"}. c #BF9458",
"|. c #4A4034",
" X c #684320",
".X c #71531A",
"XX c #533E24",
"oX c #9C876C",
"OX c #614719",
"+X c #783C0F",
"@X c #BEA37C",
"#X c #9D793C",
"$X c #191C1A",
"%X c #493520",
"&X c #3D4443",
"*X c #DBB583",
"=X c #202321",
"-X c #151310",
";X c #DBBA8F",
":X c #A8926B",
">X c #C79762",
",X c #3C403B",
"<X c #394341",
"1X c #2D2F2B",
"2X c #665219",
/* pixels */
".           a o ; e : J.@ , 1 % D           X       * e g ; p < J.9 J % 8                     q ; > f H ^ y h 1 a +   O + V m . ",
".           q o $ , @ i @ , > $ b           X       X % g ; p j < p J ; h O                   8 ; > f H H s q > 1 +       O + . ",
".           8 o ; , [ H 6 e > e q             X   X X f 7 $ p 0 0 p J & h O                   8 $ x l ^ ^ p q 1 x +         O . ",
".     O O   8 o & f - - - , > ; q         X X X * * X l 9 % j.z.f.y.l $ a O                   D % x 1 ^ s 9 8 1 x +         X . ",
". X O + V O b # $ , 6 - - , > = x * X X X * d 8.w.O.8.~.y.z.z.#.5 N S P.w.<.        X X     X 8 % a l ^ s 9 8 x > U       X X . ",
". G Y V O + x o $ , 6 - [ e > = e L * * d G D D #.' / ' N N N N / ' N #.2.d.V O X * * + O + 8 1 1 h 1 s u :.Q a 1 x m O O X * . ",
". 8 b U U 1 = = & $ [ i t # % # # # ( Q R.( k.C.S r ' ' N N ' / 5 5 5 r d.q.y.d.2.R.( ( q ( a x x b l s u | Q a 1 1 1 a q Q Q . ",
". # # = = = ; = J # 4 : i :.% e 9 7 p :.S K q./ 5 N 5 / / ' / / / r K P K P r S w.R.( a h q 8 8 b b 7 s g p l 8 x x x a q 8 b . ",
". # o ; & > > J > - 4 : H 4.e $ # 9 9 e y.q.5 P ' r ' ' 5 r N ' 5 K r K P P r 5 r d.O.D L L L Z q e s y g s H.l h q 8 D L Y m . ",
". , e % > J J & s 0 4 : H k A v | | | j.#.r 5 K +X/ N K q.N N K q./ / r P r r r 5 5 d.P.f f l , 7 g g u s s v ! v :., f l l q . ",
". ! [ ! v ~ ~ ~ - : @ i i i < ;.;.;.A d.5 5 5 r S N r 3.+XN +X-.i.N r 5 P r r P r r S ~.& l % $ ; 9 g y s s s ^ ^ u e % 1 % x . ",
". [ [ @ - : - [ [ : i @ @ i @ t t A U.P S r K / s.N s.@.+X5 K.{ r.N S 5 r 5 r r P r K ~.e e ; e # u o u s H s ^ H s # # ; e f . ",
". 4.! 6 6 : [ 6 6 - : 4 @ i @ j k ! H.2.r K g.$.$.s.i.E 0.N { E 0./ S 5 r r 5 K r K r 2.Q D D Q a e 9 u ^ ^ ^ ^ o 1 Q Q Q Q Q . ",
". l l l l l l f :.[ i H : @ [ # a ( Q R.r S =.g.i.$.a.F E a.V.r.m.r.r.P 5 5 r r K P K r #.8.* * * G e ^ u s u q m m m V + + V . ",
". a a h q q q q q 7 0 : : - % 8 a a a k.S K u.+Xr.v.] ] ] a.r.s.+Xm.@.7.5 5 r P S P K d.C.Q Q Q b L 8 ^ ^ ^ 1 U 8 q h q 8 8 q . ",
". & & % $ , , f x 1 : J.@ v a > & ; ; 1 #.q.a.@.E { ] ] ] F F F N.v.F N.d.r P K K P r S O.D ( l l q 8 ^ H H x q J > % q b 8 q . ",
". q 8 Z q l :.7 $ 1 H J.0 ~ 1 $ $ % D <.S +Xx.R a.9.E ] ] ] m.u.x.F F E +Xr K P S P r r 2.* * l f 1 h ^ ^ H x x > h V O + m Y . ",
". m + O   * l 7 o > - : 4 s > ; l d   * w.S { >XL.@XN.] ] /.L.L.}.F F E r.5 P r S +X/ K d.d   G f & a ^ s ^ 1 > % L   O + m U . ",
". + + O X   G # o % : : J.v & = l +     i.S m.;X_.oX$.] ] I.@XXXoX@.F E 0.5 K r t.+.&.h.2.*   * % & x - ^ H % % & Z O + V Y Z . ",
". X O X X X d ; o f @ i 4 ~ & ; x O     ].g.$.*X2.w.m.F F T :Xw.OXN.x.E g.r S 7.5.5.&.h.O.    d % $ l - H i & > % Z O V Y U b . ",
". X X X X X L # 9 $ [ J.< - % ; 1 O     C.g.+.@.p.9.{ E E F L.'.0.o.R { g.S +X3.5.&.+.7.*     L ; $ l ~ H i % > & Z + m Y Z q . ",
". X X X X X D y g , [ 0 0 p > $ x *     8.3.o.R 3.o.o.o.o.E E { R W W R W 7.=.t.-.&.K.#.*     L ; $ 1 ~ H ^ 1 > & Z V m U b h . ",
". X O X X X L 7 9 , [ 4 0 p > e 1 *     O.=.W { t.&.&.5.h.R E W W W W W W o.o.-.&.=.s.w.*     G e ; 1 - : [ % & e b V m U b h . ",
". O + X X X L 7 9 , 6 4 0 v > # f *   X 8.K.R R o.-.6.&.W F E 9.=.{ R R W ..%.+.K.s.#.O.      L # ; 1 ~ : [ f & # 8 V m U b q . ",
". O + + V * L 7 g $ [ 6 6 p > # % * X X * V.{ @.9.R { E F R 9.b.F E { R o.r.q.+XK S 8.X * V O G e ; 1 [ H ~ % $ o 8 V m U b a . ",
". d d G L m L 7 y , k t t p % o ; G * * * w...E F N.$.K.$.N.F F F E R o.t.u.].P S P w.G d V O D # = % [ : ! % $ o > G G L 8 x . ",
". D b Z U V h u u e k t t v % # g ( d d G D f...E F x.@.x.F E x.{ R o.3.a.N.u.s.C.O.Q Z Y V 8 e o = % - H [ , & # 9 a L D q 1 . ",
". ( a 8 Z 1 y u y e 6 t j ! & # 7 7 l Q Q ( l z.h.@.E E E x.R R @.9.0.Q.I.b.$.u.^.f , , $ , # 9 o ; % 6 : A e $ # 9 u # e # :.. ",
". :.7 7 7 u u u g e _ 0 < ! , 9 y u s p | | p n.a.g.9.@.@.@...h.V.$.X.) X./.I.Q.%X# 9 7 9 9 # = ; > :.4 H 6 | f # 7 y y y y y . ",
". u s u u y g g = ~ >.< 4 k | e g y u 7 9 7 H.{.b./.$.].g.Z.h.].Y.X.n ) X.} Y.n.)., , e e , $ % $ :.t J.H @ ,.| e ; ; = $ $ & . ",
". 7 7 7 9 9 o y ! >.j 0 @ 0 ,.! | | | | :.|  XW.Y.X./.D.&.6.D.{.} T T } T Y.S.2 l.(.v ! ! 4.! v A 6 : : @ 6 t ,.k ! v v v v p . ",
". k k _ k k k >.j < j < 0 0 < >.>.;._ ,.,.,.#Xn X.) p.1.t..XE.W.W.T T T W.T.3 3 3 M ! [ A k 6 [ - - [ : 4 t 4 0 < 4 - ^ v ~ - . ",
". _ _ j _ 0 < >.0 4 < j 0 0 0 j j _ _ _ ,.|.`.) } } T.e.G.l.p.) n n T T }.e.2 3 3 w (.! A k 6 [ A k : @ 0 < 4 0 j t ~ - ~ - ~ . ",
". A A k t 6 6 _ t @ 0 < < 0 j >.k v v v ! XXW.) ) X.OX!.l.M.} ) T T T W.T.3 2 3 3 3 C P.f , , , :.~ [ 6 0 < < < ^ # f f f f f . ",
". l l l l l l f 7 t 0 i 4 0 - f a a a ( ( E.n ) n I.G.c e.T.T n n n n Y.A.2 3 3 3 3 B k.q Q q q q a v 0 J.4 [ % 8 8 8 b Z Z b . ",
". % % > 1 1 1 x a p j 4 4 - 1 x > & % % P.'.n n ) /.c.e.c p.n n T T n }.z z 3 3 3 3 w ).% f f , f x f 0 0 4 e h J > > > x x x . ",
". ; ; ; # # 9 # > % 4 0 < v J ; = 9 # > ).p.n ) n Q.c.M l.`.T T T n n p.w M 3 2 3 3 2 F.q 1 , :.9 $ % 4 < 0 $ > & ; ; a q q q . ",
". q b Z b l | p = & 4 4 j v % # e 1 L Y c.`.n W.) {.C w M.X.n T T n n #Xw C 2 w w 2 3 C d X d e 7 o f @ J.0 $ & ; x m O + + + . ",
". m V + X * f p g $ @ i 0 p & o 1 * O G G.X.) ) } p.B 3 M.) n n n ) W.'.w C B z 2 3 3 B G X   D 7 9 , 6 : @ $ & ; L       O O . ",
". + + + + O L 9 g , 4 J.0 s $ o 1 + O G A.v.Q.} } '.2 3 M.X.W.} } W.} T.z C w w w 2 3 z <.X X G # 9 , t i J.; ; $ Z           . ",
". + + + + X L # 9 , 4 J.< ~ $ = x + X F.M l.!.S.E.!.2 2 w 1.1.S.v.Q.p.A.B C 2 2 2 2 3 z k.X X L # 9 , 4 J.0 ; & & U           . ",
". X O O X X D 9 9 e 6 4 j ~ & ; x + * M 3 w C w z C M C c B B M C c.!.M M C M M M M M B F.d X Q y g e [ J.4 $ & & L           . ",
". O X X X X q y o e [ 0 0 7 > $ a + d B 3 w c C M F.B w c C z w 2 2 w z M z 2 2 2 2 2 2 c d X b y o $ @ J.H > > % L           . ",
". O O O X X D 7 o , 6 4 0 p > = x O O F.B w c z C B M B C B C c c C C c C z 2 2 3 2 3 2 C d X L 9 o $ 6 J.@ $ & ; Z           . ",
". O O O X X D y 9 , 6 i t p > = 1 O   O.u.v.1.2 c z C C c w C B w 2 w 2 B 2X!.M B M !.G.<.* X D y 9 $ [ @ 6 $ & ; Z         O . ",
". O + + V * D 7 # f [ : [ 7 > = J O   f.+...S.z z z c B M z M w w 3 2 2 A.%.%.m.K...=.h.<.U V L 7 o $ 6 i - % $ = b X X O + * . ",
". d m Y U + D 7 o , k 6 @ 7 > = & d * f.+.3.1.B 2 z M z c w z z z 3 3 2 n.+...@.@.@.o.t.R.Y + 8 y g , t @ [ $ $ o 1 * * * d G . ",
". D b U m V 1 y o , 6 [ 6 p > = o h * C...3.!.M 3 B B w c 3 w B w 3 3 l.0...K.@.%.+.=.Z.k.U h 9 y o , 6 i A , $ o 9 h G G Z 8 . ",
". a a 8 b $ y y o , 6 @ < p > = o 9 % l 7.3.c M 3 M z 2 c 3 2 M 2 3 3 w .XD.%.=.9.K.9.D.# # y y y o , t @ k e ; 9 g u # e e # . ",
". 7 u y y y g g ; e t i i v % ; o g u y p %Xc z c C z w c w M z 3 3 3 2 2 n.+.0.6.r.D.U.u u y 9 o $ p < i k | , o y u s u u u . ",
". g y g g o = ; $ ! < i H 6 :.% = = o = = # M 3 w c w w z M B 2 3 2 3 2 2 A..XG.G.j.9 y 9 # # ; # p _ 0 : 4 ,.| # o g y 9 g g . ",
". 9 7 7 # # e 7 ! t J.: H i k ! p p p p p | M 2 2 M w w 2 w w 2 2 2 3 3 2 2 w w c 4.A A k A 4.4.,._ @ @ 4 0 _ ;.,.A A 6 k k A . ",
". k 6 k k A A _ @ - : i i : J.0 0 4 4 t _ k (.B w B 2 w 2 2 w 2 3 2 2 3 3 3 w c (._ _ 0 _ _ k k t [ [ @ 0 0 0 < < < < j j >.j . ",
". @ i i : - - [ - - H i @ i @ i H : i @ 4 @ : ! _..X1.c c M c M M c c !.2Xn.].k j j < t < j t t ;._ [ 6 < j < < j j < j j >.j . ",
". 6 @ t t [ ~ A 6 i @ i @ @ J.< @ ~ ~ [ 6 [ v H. X6.6.-.5.Z.XX~ ~ D.5.-.-.-.3.U.~ ~ s 7 p v v v A _ 6 t j >.j >.< - p v ~ - ~ . ",
". % % f f l l , p A @ : i @ - ; h h h h a k.2.N N s...%.&.5. X@ U.q.V...+.%.5.~.a x x J x x x x 1 , A j 0 < < y x x J J x J > . ",
". h x a h h q q ( p 0 : : ~ 1 8 a J J x ~.N  . . .` N ..%.6.s.XX5  . .I 0.o.=.7.& & ; = ; ; e e ; > # j < < y J & ; = ; ; ; = . ",
". & & & $ , , f x % @ J.J.p h > & = = ^.r ` ` ` ` ` ` s.t.Z./ I ` ` ` ` I t.%.Z.y.& & & > e 7 p y = $ < j j o & o g u = & & ; . ",
". q b b q f :.9 & 1 @ J.< p J ; ; % b C. .I N ' ' ' N N I / P  .` ` ` `  ./ i. .#.b U U m Y 8 | s g ; < j j o = g = q U Z b b . ",
". V + O   * f 7 = % [ H J.y > = 1 + X G 2.5 N I I I / q.f.z. .I N ' ' N I  .I S <.m m m V + + a p u # t 4 < o o g q m m Y Y U . ",
". O O O O   D 9 o f [ H J.p & ; x O     + G 8.O.O.O.8.k.7 j.f.5 N I N ' 5 #.O.G V V V V V V + Z y u # j 0 < g o g h m m m Y Y . ",
". O O O O   G e o , t i 4 s > $ h O         O O O X X Q 9 ; # t 4.|.^.j.f m O O O + + V V V V b y u # j < j g o = 8 m m m Y Y . ",
".   O O   X L # o , t J.< s > $ h O                 X a g = # @ J.[ > ; & m O O O + + + V V + q u u 9 t < j o = o q m m m m Y . ",
". B.B.B.B.B.-X[.[.[.,X<X&X1X$X=X$X*.*.*.*.*.*.*.*.*.*.% g = # i J.s J & > m O O O + V + V + + h s u # t < 4 ; = = 8 m m m m Y . "
};
