/* XPM */
static char *_71ff4ee63ea41c1d8f78bb99094a0958ZbiqTRsEEiv0lPr[] = {
/* columns rows colors chars-per-pixel */
"64 64 180 2 ",
"   c #020201",
".  c #080705",
"X  c #0A0806",
"o  c #070909",
"O  c #0C0C0B",
"+  c #100E0C",
"@  c #12110E",
"#  c #141413",
"$  c #1A1713",
"%  c #1B1917",
"&  c #1C1D1B",
"*  c #211F1B",
"=  c #1F211F",
"-  c #22211E",
";  c #1C1F20",
":  c #1E2221",
">  c #242523",
",  c #292622",
"<  c #262826",
"1  c #292926",
"2  c #262A29",
"3  c #2C2D2B",
"4  c #312E29",
"5  c #2F312F",
"6  c #33322E",
"7  c #2E3231",
"8  c #333533",
"9  c #353837",
"0  c #3A3A36",
"q  c #353A3A",
"w  c #3A3D3C",
"e  c #403E3C",
"r  c #3E403E",
"t  c #434135",
"y  c #43423D",
"u  c #4B483C",
"i  c #3C4141",
"p  c #424443",
"a  c #484541",
"s  c #454844",
"d  c #4B4942",
"f  c #424748",
"g  c #43494A",
"h  c #4C4D4A",
"j  c #544F45",
"k  c #4E504C",
"l  c #575543",
"z  c #5B5A46",
"x  c #55554C",
"c  c #59554B",
"v  c #5B5B4F",
"b  c #4E5250",
"n  c #5B5C54",
"m  c #5C5E59",
"M  c #515554",
"N  c #615E56",
"B  c #6A654E",
"V  c #67624B",
"C  c #676354",
"Z  c #65645D",
"A  c #6B6A5E",
"S  c #726C54",
"D  c #787057",
"F  c #7D745B",
"G  c #6B6C64",
"H  c #626360",
"J  c #706A60",
"K  c #757266",
"L  c #74736B",
"P  c #79776B",
"I  c #7F796C",
"U  c #7C7B72",
"Y  c #80775C",
"T  c #83795F",
"R  c #897E63",
"E  c #817D6B",
"W  c #867C61",
"Q  c #837F73",
"!  c #7F8077",
"~  c #8D8266",
"^  c #8C866D",
"/  c #938567",
"(  c #92866A",
")  c #988769",
"_  c #968A6E",
"`  c #9D8C6C",
"'  c #858074",
"]  c #8C8674",
"[  c #8E8A74",
"{  c #83837A",
"}  c #8B887C",
"|  c #9B8E72",
" . c #968D7C",
".. c #998F7B",
"X. c #9E9075",
"o. c #9D937D",
"O. c #A08E6D",
"+. c #A49476",
"@. c #A89777",
"#. c #A49679",
"$. c #A89778",
"%. c #A7987C",
"&. c #AA9A7C",
"*. c #8C8B80",
"=. c #918E82",
"-. c #949087",
";. c #9C998D",
":. c #989282",
">. c #A59981",
",. c #AC9E82",
"<. c #A59E8C",
"1. c #A39C90",
"2. c #AFA084",
"3. c #AFA389",
"4. c #B0A285",
"5. c #B2A58B",
"6. c #B6A98F",
"7. c #A7A294",
"8. c #ABA494",
"9. c #AEA99C",
"0. c #ABA699",
"q. c #B3A790",
"w. c #B5AA92",
"e. c #B9AD94",
"r. c #B2AB9C",
"t. c #BDB29A",
"y. c #BCB096",
"u. c #B5AFA3",
"i. c #BBB4A4",
"p. c #BCB6AA",
"a. c #BFB9AC",
"s. c #B5B3A0",
"d. c #C0B59F",
"f. c #C2B6A0",
"g. c #C4BAA5",
"h. c #C4BDAC",
"j. c #C9BEA9",
"k. c #C3BEB0",
"l. c #C7C1AF",
"z. c #CBC1AD",
"x. c #CCC4B2",
"c. c #CEC6B8",
"v. c #CEC9BB",
"b. c #C6C1B4",
"n. c #D0C7B3",
"m. c #D2C9B6",
"M. c #D5CCBA",
"N. c #D8CFBD",
"B. c #D9D0BE",
"V. c #D6CFC0",
"C. c #D7D0C1",
"Z. c #DDD4C4",
"A. c #E0D7C6",
"S. c #E0D7C7",
"D. c #E1D8C7",
"F. c #E1D8C7",
"G. c #E2D9C9",
"H. c #E4DBCC",
"J. c #E4DCCD",
"K. c #E5DDCF",
"L. c #E7DECF",
"P. c #E6DDCE",
"I. c #E5DCCD",
"U. c #E6DED0",
"Y. c #E7DFD0",
"T. c #E7DFD1",
"R. c #E7DFD0",
"E. c #E8DFD0",
"W. c #E8DFD0",
"Q. c #E8E0D1",
"!. c #E8E0D0",
"~. c #E8E0D2",
"^. c #E9E1D2",
"/. c #E9E1D3",
"(. c #E8E1D3",
"). c #EAE2D3",
"_. c #EAE2D4",
"`. c #EAE3D5",
"'. c #E9E2D4",
"]. c #E8E0D1",
/* pixels */
"          # > > > 9 i i 3 - - % O                   . > 2 > 8 f i 8 & > % .                   O & > - 3 q 9 2 % & %           . ",
"          @ > > > 9 w w 6 > 3 J r.N.B.Z.Z.Z.Z.Z.Z.Z.A.Z.A.A.A.D.H.A.D.D.A.H.H.H.Z.H.Z.A.A.Z.Z.Z.A.Z.M.j.' 9 1 % & $             ",
"          @ > > > 8 0 0 3 < N m.H.Z.H.K.K.U.U.U.(.(.U.(.(.(.(.(.(.(.(.(.(.(.(.(.U.(.U.U.U.H.H.K.K.Z.x.5.f.d > $ & $             ",
"      .   @ > > > 9 w w 3 N h.U.K.K.(._.(._._._._._.(._._._._._._._._._._._._._._.(.(._.(.K.U.U.K.M.q._ <.Q > $ & % O           ",
"X O o   . $ < > > 9 w w 0 8.K.U.K.(._._._._._._.(._._._._._._._._._._._._._.(._._._._.(._.K.(.(.K.z.#./ +.:.3 # % & # o       . ",
"@ # O O $ > 2 > > 9 w i d i.K.U.K.(._._._._.(.(.(.(.(.(._.(._._._._._._._._.(._._._._._.(.K.(.U.H.d.` ) #. .0 $ % & & % # # @ # ",
"> > = : > > > : > q w w h h.U.U.K._._.(.(.(.(.(.(.(.(.(._.(._.(.(.(._._._._.(.(._.(._.(.K.U.(.K.H.e.` ) +. .u % $ & & & % # # # ",
"1 2 < > : : : ; 5 w i w n c.U.K.K._.(.(.(.(.(.(.(.(.(.(.(.(.(.(.(._.(.(._._.(.(._._.(.(.K.(.(.H.H.5.O.` #...x 3 & % $ # @ + O O ",
"> < > : ; ; : 2 w i i w Z V.U.K.K.(.(.(.U.(.K.(.(.(.K.(.(.(.(.(.(.(.(.(.(.(.(.(.(.(.(.U.K.(.U.H.Z.&.+.+.+...N 6 6 3 , - & % $ # ",
"6 9 8 3 3 3 7 9 w i i w G Z.U.K.K.(.(.(.(.U.(.E.(.(.(.!.(.(.(.(.(.(.(.(.(.(.(.(.(.(.(.K.K.(.K.H.Z.&.+.+.+.o.Z 8 9 8 3 > > & * % ",
"0 w w 0 0 0 w w w w i i L H.U.K.K.(.K.(.(.(.(.(.(.(.(.K.(.(.(.(.(.(.(.(.(.(.(.(.(.(.(.K.K.U.K.H.N.+.+.+.+.#.G 8 9 9 8 1 > > > - ",
"w 0 w w w w r w w w i i U K.U.K.K.(.K.E.K.(.(.U.(.(.U.(.(.(.(.(.(.E.(.(.(.(.(.(.(.(.U.I.K.K.K.H.M.+.+.+.+.>.K 8 8 3 > & & % & $ ",
"3 1 3 3 1 1 4 8 0 w w w { K.K.H.K.(.K.K.K.(.U.K.(.U.K.(.(.(.U.K.(.K.(.(.E.(.(.(.(.K.(.K.K.U.K.D.n.+.+.+.+.>.P 3 = $ @ O O O O O ",
"& & % % % % % * 6 w w w -.K.K.H.(.(.(.U.(.(.U.U.(.(.(.(.(.(.K.(.(.!.(.(.(.(.(.(.U.U.K.I.K.K.K.D.z.+.+.&.+.,.I - # O @ # O O O O ",
"& & & & & & & % > 9 i i ;.K.J.H.(.(.(.U.(.K.(.K.!.(.(.E.(.(.K.(.(.(.K.(.(.(.E.K.(.K.K.K.U.K.H.Z.j.+.$.&.+.3.Q % # % & & $ # # $ ",
"& & % & - , 1 > & 8 i i 7.K.J.H.(.(.U.(.(.K.(.K.(.K.(.U.!.!.K.K.(.(.E.K.(.U.K.K.U.K.K.H.U.K.H.Z.d.+.&.&.+.4.] & % & % # O O O @ ",
"O O O O @ - 3 < = 8 w i i.K.K.H.(.(.K.(.U.U.U.E.K.E.(.K.U.(.(.U.(.U.E.!.(.E.K.(.U.K.K.K.U.K.H.B.y.+.&.,.+.4.] - & & O       O O ",
". .       # 1 2 > 8 w i h.K.K.H.(.U.K.(.K.U.(.U.E.E.(.U.U.(.!.K.K.K.E.(.(.(.K.K.K.K.K.K.K.K.H.B.e.+.&.2.+.3.] 1 = & O     . O O ",
"          X > 2 > 8 w i m.K.K.I.(.K.K.E.K.K.U.U.(.K.K.(.U.U.(.E.K.K.K.K.E.U.K.K.E.E.!.K.K.K.H.M.6.+.&.2.+.3. .5 : & O   . O O @ ",
"          X - 2 > 9 i i Z.K.K.K.(.K.U.K.K.K.(.(.!.E.K.K.U.K.(.K.K.K.K.K.E.K.K.K.K.E.K.K.K.K.H.M.5.+.&.2.@.3...6 : & O . o O O # ",
"          O > 2 > 8 i b H.K.H.K.U.U.K.K.K.U.E.E.K.K.(.E.K.K.U.K.E.E.E.K.K.K.E.K.E.E.K.H.K.K.H.x.,.+.&.2.&.,.o.0 = & O . O O # $ ",
"          + 1 3 > 8 i m H.K.H.K.U.K.K.K.K.U.E.E.K.K.K.K.K.K.K.K.E.E.E.K.K.K.E.K.K.K.K.H.K.K.D.z.&.+.&.2.&.,.o.0 : - + . O O # $ ",
"          O > 3 > 9 i G H.K.H.U.E.E.E.U.U.U.K.E.K.K.K.E.!.!.K.E.U.E.U.K.K.K.E.E.K.K.K.K.K.I.Z.j.&.@.&.2.&.&.>.y > > @ . O O # % ",
"          O > 3 > 9 i Q K.K.H.U.U.E.(.K.K.(.E.E.K.K.E.!.(.(.(.E.E.E.K.K.K.K.E.K.!.I.H.K.K.H.Z.d.&.&.&.,.,.&.<.u > > # . O O # $ ",
"  . . . . O 1 3 > 9 w =.K.K.H.(.E.K.E.K.K.(.U.K.K.U.K.U.U.K.U.K.K.E.E.K.K.K.K.K.U.K.I.K.K.H.Z.t.&.&.&.2.&.&.<.d > > # X X O # % ",
"X O O O O + 1 3 1 0 i 1.U.K.H.(.E.K.E.K.K.K.U.K.E.E.K.E.U.K.E.K.K.K.K.K.K.K.E.K.U.K.K.K.K.H.Z.e.&.&.&.2.&.&.3.d > 2 & O O + # & ",
"@ # @ O O % 3 3 1 0 p r.U.K.H.(.K.K.K.E.K.K.E.K.E.K.(.E.E.E.K.K.E.K.K.K.K.K.K.K.K.K.I.K.K.H.Z.q.+.&.&.3.,.&.5.j > 2 1 % @ # % - ",
"& & $ # & 3 8 3 1 0 p h.U.K.H.E.K.K.K.K.K.K.E.E.K.K.K.K.K.K.K.K.E.K.E.K.K.K.K.K.K.K.H.K.K.H.B.4.+.&.&.4.4.&.5.c > 2 3 3 2 1 3 4 ",
"4 6 3 3 8 8 7 3 2 w f N.U.K.H.(.K.K.K.K.K.K.K.E.E.E.K.K.K.K.E.E.E.K.K.K.K.K.K.K.K.K.H.K.K.H.M.3.+.&.&.3.4.&.5.C > 1 3 3 3 3 3 3 ",
"5 8 8 8 3 3 3 2 9 f h Z.U.K.H.(.K.K.K.K.K.K.I.E.E.E.K.K.K.E.K.E.K.K.K.K.K.K.K.K.K.K.H.K.K.Z.m.,.+.&.&.2.4.&.4.K 4 1 < < < > > > ",
"3 6 3 3 3 2 3 0 s g M Z.K.H.H.E.K.K.K.K.K.K.K.K.E.E.K.K.K.K.K.K.K.K.E.K.K.K.K.K.K.K.H.K.K.Z.m.,.+.&.&.2.4.&.,.I a y 0 9 8 6 6 6 ",
"y p s p p p h g f g Z H.K.H.K.E.E.K.K.K.K.K.K.K.K.K.K.K.K.K.K.K.K.K.K.K.K.K.K.K.K.K.H.K.K.Z.z.&.+.#.&.,.4.&.,.' f f i w 9 9 0 0 ",
"s s g f f f h f i f G H.K.H.K.K.K.K.K.K.K.K.K.K.K.K.K.K.K.K.K.K.K.K.K.K.K.K.I.K.K.I.D.K.K.B.j.%.+.#.&.,.4.&.,.] i f p 0 0 q 0 0 ",
"y e p p i i p p i i L K.K.D.K.K.K.K.K.K.K.K.K.K.K.K.K.K.K.E.K.K.K.K.K.K.K.K.K.K.K.I.H.K.K.N.g.#.+.#.%.,.3.&.,. .i 8 1 - - - > - ",
"- * - - - - - 3 w i U K.K.A.K.K.K.I.K.K.K.K.E.K.K.K.K.K.I.K.K.K.K.K.K.E.I.K.K.K.K.H.H.K.H.M.d.#.+.#.&.&.2.&.,. .- $ $ # # @ @ # ",
"* = & & & & & & 3 i *.K.K.A.K.K.K.K.K.K.K.K.K.K.K.K.E.K.E.E.K.K.K.K.K.K.K.K.K.K.I.H.H.H.H.M.t.+.+.#.&.&.3.&.&.o.% & & & & & % & ",
"> > > > 1 1 < : > q =.K.K.A.K.K.K.K.I.K.K.K.K.K.K.K.K.K.K.K.K.K.K.K.I.I.K.K.K.K.K.H.H.H.H.M.t.+.+.#.%.&.,.&.&.>.; > > > % $ $ $ ",
"% $ # # * 3 3 < > q ;.U.H.H.K.K.K.K.K.K.K.K.K.K.K.K.K.E.E.E.K.K.K.K.I.K.K.K.K.K.K.H.H.H.H.M.e.+.+.#.%.&.,.&.&.<.> > % O . o o o ",
"O O .   X * 3 3 > 9 7.K.H.H.H.K.I.K.K.E.K.K.I.K.K.K.I.K.K.K.K.K.K.K.K.K.H.K.H.I.K.D.K.H.D.m.q.+.+.+.%.&.,.&.&.5.> : O           ",
". .       @ 1 3 > r 0.K.H.H.K.K.I.K.K.K.K.K.K.K.K.K.I.K.K.K.K.K.K.K.K.K.K.K.I.I.K.A.H.H.A.x.5.+.+.#.%.&.,.&.%.6.< = O           ",
".         O > 2 > s 9.K.H.K.K.K.I.K.I.K.K.K.K.K.K.K.K.K.K.K.K.K.K.K.K.K.K.K.I.I.K.Z.K.H.A.z.3.+.+.#.#.&.,.%.+.5.8 & O           ",
"          + > 3 < k u.K.H.K.K.K.I.K.K.K.I.K.I.K.K.K.K.K.K.K.K.K.K.K.K.K.I.I.I.I.K.Z.K.H.A.j.,.+.X.#.#.%.&.%.+.5.9 & O           ",
"          @ 1 3 < n p.K.H.K.K.H.I.K.K.K.H.K.I.K.K.K.K.K.K.K.I.K.K.K.K.K.K.I.K.K.H.Z.K.H.A.g.>.X.| +.+.#.&.%.#.3.w & O           ",
"          + 1 2 > n a.K.H.K.K.K.K.K.I.K.K.K.K.K.K.K.K.K.K.K.K.K.K.I.K.K.I.I.H.I.H.H.K.H.Z.i.#.X.X.+.+.#.#.#.+.,.r & O           ",
"          + 1 3 > n p.K.H.K.K.K.K.I.H.K.K.K.K.K.K.K.K.K.K.K.K.K.K.K.K.K.I.H.I.H.H.H.K.D.Z.t.+.X.X.X.+.+.#.#.X.%.y > O           ",
"          + 1 3 > n a.K.H.H.K.K.K.I.I.K.K.K.K.I.K.K.K.K.K.K.K.K.K.K.I.K.H.I.H.H.H.H.H.A.Z.e.X.X.| +.+.+.#.#.X.%.y > +           ",
". . O O . + > 3 > A b.K.H.K.K.K.I.I.H.K.I.K.K.K.K.K.K.K.K.K.K.K.K.K.I.I.I.I.K.K.H.K.H.A.Z.q.X.X.| | X.X.+.+.| #.v > #       . X ",
"O O O O . # 1 3 > K x.K.H.K.K.I.I.H.H.K.K.H.K.I.I.H.K.I.K.I.I.I.K.I.H.I.K.H.K.K.D.J.H.A.Z.q.X.| | | | X.+.+.| X.A 2 = O X X O @ ",
"# $ # O # > 3 2 > U v.H.H.K.K.K.K.K.K.K.K.I.K.K.K.I.K.I.H.I.H.H.H.H.H.H.H.H.H.H.Z.K.H.Z.N.5.| | | | | | X.X.| X.E 3 3 > % % & * ",
"> > = - > 3 3 2 > } V.H.H.K.K.K.K.K.K.I.K.I.K.K.K.I.K.K.K.K.K.I.I.I.H.H.H.H.H.H.Z.K.H.Z.N.3.| _ _ _ _ | | | | X.[ 3 3 5 3 3 3 3 ",
"3 3 3 3 3 2 2 > 3 ;.Z.H.H.K.K.K.I.I.I.I.I.K.K.I.I.K.I.I.K.I.I.K.I.I.K.K.I.I.H.I.D.K.H.Z.M.%._ _ _ / / / _ | _ | [ 9 3 3 8 3 3 3 ",
"3 3 3 3 1 < 1 3 w 7.Z.H.H.K.K.K.K.I.I.K.I.I.K.I.I.I.K.I.I.I.I.K.I.H.H.H.H.H.H.H.A.K.H.Z.m.>.| _ _ / / ( / _ _ _ ^ y 8 8 8 8 9 8 ",
"8 8 8 8 6 6 9 w s r.H.H.H.K.K.H.I.I.I.K.I.I.K.I.I.I.I.I.I.K.K.K.K.I.H.H.H.H.H.H.A.J.H.Z.m.#.| _ _ _ _ _ _ | _ _ R h p i p f s p ",
"i i i i w w p w h i.H.H.H.K.K.H.H.H.H.H.I.K.H.K.I.K.K.I.I.H.H.K.I.K.H.H.H.H.H.H.D.K.H.Z.m.X./ / ~ ~ / / / / ~ ~ F g f f f g g g ",
"i w i i w 0 w w x h.H.H.H.K.H.H.H.H.I.I.I.I.I.I.H.I.I.I.H.H.K.I.H.H.H.H.H.H.H.H.H.H.H.Z.z.~ T T W R R R R ~ ~ R C f p i p f f f ",
"9 9 0 0 8 6 9 0 n c.K.H.I.K.H.H.H.H.H.H.H.H.I.H.H.H.H.H.H.H.H.I.H.H.I.H.H.H.H.H.H.H.H.Z.z.B V B S S D D F Y Y D x 9 5 3 3 5 6 6 ",
"& & * * * * - 3 Z C.K.H.K.K.K.K.I.K.K.K.K.K.H.H.H.H.H.H.H.H.H.H.H.H.H.H.H.H.H.H.H.H.Z.B.j.0 6 0 t u l z z z z l 6 & & & ; & & : ",
"% & & & % % % % A M.H.H.K.H.H.H.H.H.H.H.H.K.K.K.K.K.K.K.K.K.H.H.H.H.D.D.H.H.H.D.H.D.A.N.d.6 > 1 1 > > 8 f f i 2 ; > 2 2 > > > 2 ",
": : = - > , > & n h.Z.Z.H.H.D.H.D.D.H.H.H.H.H.H.H.H.H.H.H.H.H.H.I.H.H.H.H.H.H.H.H.H.Z.M.w.6 > 3 6 3 < 8 f g i 2 < 2 2 2 > ; : > ",
"# # O # % 1 3 > 1 G ! { U 9.m.B.Z.Z.Z.Z.Z.Z.F.Z.D.A.H.H.D.D.H.H.H.H.H.H.H.H.H.H.H.H.Z.M.8.% O & 6 8 2 8 f f i 2 2 2 : # O O # # ",
". .       & 3 2 > w f f r x G P K K P } 7.l.M.B.Z.Z.Z.Z.Z.Z.A.A.A.D.Z.Z.A.Z.D.A.H.A.Z.n.<.$ . O > 8 3 8 i i w 2 3 < # o o O O O ",
"          O > 2 > 9 w r 9 < > = O       . # > = @ > s.h.b.x.M.B.Z.Z.Z.Z.Z.Z.Z.Z.Z.Z.B.g.] O . O & 3 3 8 f i i 2 2 < # o o o o O ",
"          X - 2 > q i i q 2 > & O                   - 6 s d c L { }  .;.7.i.a.i.i.r.<.E t . . O - 3 3 8 f f i 2 2 > # o o o o o ",
"          O > 2 > 0 i i 0 2 > & O                     & 2 < 3 i i p 3 5 8 0 0 8 6 3 - # O . . + > 7 3 8 i f i 2 2 > # o o o o O "
};
