/* XPM */
static char *_a33d82a2fb74a14e1f91816a1291d1d7KOzPEL75vzp0du0[] = {
/* columns rows colors chars-per-pixel */
"64 64 205 2 ",
"   c #062334",
".  c #072435",
"X  c #062130",
"o  c #072332",
"O  c #062232",
"+  c #072536",
"@  c #06202F",
"#  c #072231",
"$  c #072739",
"%  c #07202E",
"&  c black",
"*  c #061F2D",
"=  c #082333",
"-  c #082130",
";  c #082637",
":  c #0D435A",
">  c #072333",
",  c #092535",
"<  c #0D455C",
"1  c #0D465E",
"2  c #0C3247",
"3  c #092737",
"4  c #0B2D40",
"5  c #0D3449",
"6  c #153548",
"7  c #104E66",
"8  c #0B2E42",
"9  c #104D65",
"0  c #0C4A62",
"q  c #0D364B",
"w  c #0D546D",
"e  c #104860",
"r  c #123549",
"t  c #010101",
"y  c #0C3043",
"u  c #0C4E66",
"i  c #0B3145",
"p  c #0C526B",
"a  c #0C3A50",
"s  c #092C3F",
"d  c #1C1C1A",
"f  c #105068",
"g  c #0C475F",
"h  c #1F8098",
"j  c #0D4961",
"k  c #0C4D65",
"l  c #0F5C75",
"z  c #0D4158",
"x  c #0E5871",
"c  c #133346",
"v  c #19768F",
"b  c #0A293B",
"n  c #14374A",
"m  c #0A3449",
"M  c #0C3F56",
"N  c #0D3B52",
"B  c #1E7E97",
"V  c #17738B",
"C  c #0E5972",
"Z  c #161513",
"A  c #103043",
"S  c #0B2E41",
"D  c #207E96",
"F  c #156E86",
"G  c #0C2B3D",
"H  c #105169",
"J  c #153345",
"K  c #0C5068",
"L  c #0F4B63",
"P  c #0F5B73",
"I  c #0D566F",
"U  c #061D2B",
"Y  c #136981",
"T  c #21829A",
"R  c #1A7991",
"E  c #2D2F2E",
"W  c #1C7C95",
"Q  c #0A2839",
"!  c #1B7B93",
"~  c #11384D",
"^  c #060808",
"/  c #11536B",
"(  c #092A3D",
")  c #11435A",
"_  c #181716",
"`  c #103246",
"'  c #0F3F55",
"]  c #146C84",
"[  c #11637C",
"{  c #0C0C0B",
"}  c #12657E",
"|  c #030302",
" . c #0C0B09",
".. c #174259",
"X. c #105F78",
"o. c #191A18",
"O. c #19748C",
"+. c #09374C",
"@. c #1D1A17",
"#. c #122F41",
"$. c #106179",
"%. c #111211",
"&. c #126780",
"*. c #30312F",
"=. c #292926",
"-. c #15303F",
";. c #0B3D53",
":. c #262522",
">. c #112C3B",
",. c #222524",
"<. c #153241",
"1. c #167189",
"2. c #0D384E",
"3. c #131412",
"4. c #10100E",
"5. c #252928",
"6. c #142935",
"7. c #0D2634",
"8. c #114057",
"9. c gray2",
"0. c #10566E",
"q. c #07090A",
"w. c #102F41",
"e. c #122D3E",
"r. c #114A62",
"t. c #061B27",
"y. c #1C1F1E",
"u. c #0E3D54",
"i. c #0A0C0D",
"p. c #162227",
"a. c #090705",
"s. c #2D2C29",
"d. c #2A2C2A",
"f. c #333533",
"g. c #123A50",
"h. c #090908",
"j. c #0B2635",
"k. c #14120F",
"l. c #0F2938",
"z. c #0B1C26",
"x. c #123D54",
"c. c #0E0E0D",
"v. c #091E29",
"b. c #20201E",
"n. c #18262C",
"m. c #181F22",
"M. c #082F43",
"N. c #323737",
"B. c #144D64",
"V. c #0B222F",
"C. c #2F2E2B",
"Z. c #0B1E28",
"A. c #1B2428",
"S. c #202221",
"D. c #434849",
"F. c #060E12",
"G. c #134F65",
"H. c #09171F",
"J. c #404141",
"K. c #303333",
"L. c #155F77",
"P. c #36332F",
"I. c #0E394F",
"U. c #153A4E",
"Y. c #2C3132",
"T. c #353736",
"R. c #132C3B",
"E. c #1D272B",
"W. c #173343",
"Q. c #24221F",
"!. c #172C39",
"~. c #0E2532",
"^. c #211F1B",
"/. c #383B3A",
"(. c #414646",
"). c #060B0E",
"_. c #141C20",
"`. c #1D2C34",
"'. c #3A4040",
"]. c #343C3F",
"[. c #131A1D",
"{. c #0D202B",
"}. c #121D22",
"|. c #071A24",
" X c #101F27",
".X c #1C282E",
"XX c #0C171C",
"oX c #2F3A3E",
"OX c #0E1417",
"+X c #19647C",
"@X c #272C2E",
"#X c #28353B",
"$X c #3A3937",
"%X c #3F4545",
"&X c #1A6B82",
"*X c #163B4F",
"=X c #1B7087",
"-X c #1B3543",
";X c #061219",
":X c #12232D",
">X c #434442",
",X c None",
"<X c #2F3638",
"1X c #252E31",
"2X c #1B6E85",
/* pixels */
"& & & t t 3.,.,.,.<X].].1XA.A.p. XZ.{.V.~.j.3 Q Q 3 3 3 , V.{.`.#X@Xy.,.o.9.& & & & & & & & &  .d S.b.d./.N.d.o.b._ 9.& & t | 9.",
"& & | ).F._..Xn.:X6.!.l.7.7.7.7.j.= = , ; 3 Q b ( G s 3 ; 3 o @ V. X_.S.o.9.& & & & & & & & &  .d b.d =.T.f.=.o.y._ 9.& & & & t ",
"& 9.F.z.z.{.~.~.7.j.l.Q b ( G G G G G 4 S S 8 8 M.S 4 G b ; 3 o % v.Z. X}.).| & & & & & & t & h._ b.d =.N.*.:._ d _ 9.& & & & t ",
"| F.|.j.3 3 Q 3 Q b G G 4 S 8 y i 2 2 2 5 5 2 2 i M.( y G j.3 = % * U v.z.H.F.^ | t t t & & t  .o.y.d =.N.*.:.Z d o.h.& & & t | ",
"F.z.j.3 ( 4 8 8 i 2 5 2 2 y y 2 5 2.2.2.I.2.5 m m M.$ y 4 j.; = - % * U U t.|.;X).^ a.9.| |  .Z d d o.:.K.*.:.Z o.d Z ^ | t | 9.",
" X~.Q 4 8 y 2 2 5 q q q 5 5 5 q 2.I.I.I.N a 2.a +.i ; y 4 j., # @ X X @ * t.|.|.z.}.[.Z 3.3._ @.d o.o.:.K.*.:.Z @.d d o.Z k.k.k.",
"7.l.G 8 i 5 q q q I.N I.2.2.I.I.a u.u.N M ;.N M ;.m $ y 4 j., = X X # # @ * U t.t.Z.z.XX[._ Z Z Z 3.d s.Y.E s.@._ d d d o.Z 3.3.",
"7.G A 4 2 2.N a N u.u.N a N N N u.z z M z M M z M +.$ y S j., = o - # O O # @ U U * U t.H.XXOX%.3.@.=.Y.E E *.=.@.o._ Z k.4.{  .",
"7.G w.G 5 N 8.' ' 8.8.' u.u.u.u.M : : z : z z : M +.$ i S ; ; ; , - o     o X * @ @ * t.t.t.v._.y.=.d.E E K.f.P.*.s.:.^.@.@._ k.",
"~.G w.b 2 u.) z z ) ) z M M M z z : : z : : z : M +.b i 8 3 3 3 , # O     o X % X # X @ * U U v.{.p.A.5.Y.K.f.f.T.f.C.:.S.^.^.@.",
"~.l.w.b 2 ' ) : : ) ) : z z z z : < < z < : z : M +.( 2 y 3 3 3 , X O     o # % X O   O X * * * U v. Xp..XY.N.N.N.N.*.=.5.Q.:.b.",
"6.e.#.G 5 8.e ) < 1 1 < < < : : : 1 1 : < : : : M +.s 5 y 3 Q 3 , X O     o # % - o     X % * * * U t.t.{..XY.K.N.E :.@.@.@.@._ ",
"!.-.<.G q : r.e e L e 1 g g < < < g 1 : 1 1 < < z a M.5 y Q 3 3 , X O       # % X O   o X @ - X X X * U v.% :XE.b.Z 4.c.{  . . .",
"!.-.J G 2.1 7 L r.L r.e j j g < < g 1 : g 1 < 1 : ;.M.2 8 3 $ 3 , O O       O @ X O     X @ # X O O # % * * v.z.OX4.%.%.c.c.c.c.",
"!.-.J S a e / 7 L 9 9 9 L L j 1 < g 1 : g 1 < g < ;.M.2 8 $ $ 3 , X O       O @ X O     X X = # O   o X @ @ * v.H.[.d d Z %.3._ ",
"6.-.c S a j 7 9 7 7 7 7 L L j 1 < j j : g 1 < g 1 M M.m y b $ $ ; O O       O % X O     # # = # O   o - X X X X % m.o.%.i.i.c.%.",
"6.-.c S a e 7 7 7 f f 7 L L j 1 < j g : 1 < : g 1 M i 5 2 G ( Q 3 o O       O @ X O     # # = o O     # @ X O O @ m.4.| | 9.h.{ ",
"6.-.J S a r.f 7 7 H H 7 L 9 e 1 < 1 1 : < < : 1 1 M 2 5 5 y G b 3 o >       O @ X O     o o , o O     # X X O O X m.{ t | 9. .c.",
"6.-.J S a e 9 7 f f H 7 L L e 1 < 1 < : < < : 1 1 M 2 5 5 w.G b 3 > . . .   O @ X O     O o , o O     O X X O O X m.c.| 9.h.{ 4.",
"6.-.J S a e 9 7 f f H f L L j < < 1 1 : < < < 1 1 z 2 5 5 y G b 3 > . . .   O @ #   .   o # , o O     O X X O O X m.c.9.^  .c.3.",
"6.-.J S a e 9 9 7 f / H 9 L j < < g 1 : 1 1 1 1 1 : m 5 2 S G b 3 # > . .   O X #   +   o o , o O     o # X O O X m.c.9.h.{ %.Z ",
"6.-.6 8 a e 9 L L 9 H H 9 9 e 1 1 L L 1 L e 1 j j : m m i 4 ( Q ; @ o + .   O X o . +   O O + O O     o - X O O # m.4.9.h.i.%._ ",
"6.<.n y a e 7 7 9 7 f 7 L L L e e 9 9 g 0 0 j j j : m m i s ( b 3 X O +     O @ X > +   o o + > > .   o - #   O # A.4.9.h.i.%.o.",
"6.W.U.y I.e f f 7 f f 7 9 9 L L L 7 7 j 0 0 0 0 j : m m i s b b 3 # O + .   # % X   . O O o + > > .   O # o >   X A.%.a.h.{ %._ ",
"!.-XU.` I.r./ H f H H f f f 7 L k u 7 0 k 0 0 0 g : m m i s b Q 3 o   + + . O * #   . O X O . > > .   O X o .   X A.Z a.h.{ 3._ ",
"!.W.U.2 N 9 / / H 0.0./ H / f 7 L u u 0 u k 0 0 g : m m i s b $ 3 o   + + . o * O   +   O # o     + o # X o .   X E.y. . .4.Z d ",
"R.J U.2 N 7 / / / 0.0.0./ / H u k K K 0 u u 0 k 0 < +.m i s b $ Q >   + + . > @ O   + . > o o   . +   X % >     X E.=.@.k.k.@.b.",
"R.c U.2 ;.7 / / / 0.0.0./ / p K u p p 0 u k 0 k k 1 +.m i s ( b Q >   + + +   @ O   + . > o o . + + . X *   .   X E.s.C.s.=.s.C.",
"R.` g.2 ;.7 0.0.0.x x I w w p K u K K k k k 0 k k g +.m 2 4 s ( Q >   + + +   @ O   + . > # o . + + + O @   +   X E.d.E E d.E E ",
"e.` g.2 ;.f I 0.0.x C x w w p K u K K k k k 0 u u g +.m 2 4 s ( Q > O . + +   @ O . + +   o o . + + . # % . + .   E.=.=.=.:.,.,.",
"e.c *X2 ;.H w I 0.x C C I I w K u K p k u k 0 u k g +.m 2 S 4 s b > O . + . O @ O . + + . o > . + + + O % . + . > <X$XT.f.P.P.*.",
"-.c *X2 ;.p w x x P P C I I w K u p p k u u 0 0 0 g +.m 2 8 S s (     . .   O @ O   . . > >   . + + + O % . + . o oXJ./.T.T.$X$X",
"-.` g.2 ;.p I x C l P C I I w K u p p u p K k u u j +.q 5 y S s (   X @ @ % % @ O O X X # > . + + + + o % . + . o oXJ.$X/././.$X",
"-.` g.m ;.K I x C l P C I I w K K w w K p p K K K 0 a 2.q y S s ( > @ * * * * * @ X @ * % X . .   X # X % .   O o 1X=.Q.Q.Q.:.Q.",
"e.` x.5 a k w x C l P C I I w p p x x p w w p p K 0 ;.a q y S s ( o % * * * * % % @ @ % * @ . > X * * * % o # X @ [.Z 3.%.4.k.%.",
"e.r x.q ;.u x C C P P P C C x w w x C w w w w w p 0 ;.N 2.y S s ( o % * X O O # X @ @ O X X . > X * U U * @ % * U }.y.y.d d o.d ",
"#.r 8.+.M K P P P l l l l l P C x P P x x C I w p k M N I.2 8 S s . X % * * @ X X @ * * @ o + > X * @ X X @ X # % p.,.,.o.Z _ _ ",
"e.r 8.2.M w l l l X.$.$.$.$.X.l C l X.C l l x x I K z u.I.2 i 8 s + o # % * * @ O # @ * * X . . # * % @ X X @ @ % p.o.{ 9.^ ^ ^ ",
"R.n ..N : I l X.X.[ [ } [ [ $.X.l $.[ P l l x P C w < ' N 2 i 8 s + + ; o @ * * > . o @ * * . + . % * * @ o X * * p.4.t & | | | ",
">.6 ..N < x $.[ [ } &.&.} } } $.X.$.[ X.X.X.P l l I 1 z N 5 i 8 4 $ ; $   X * * > + ; o @ @ ; $ ; . % * % + + # * p.{ & & & & & ",
">.n ..N < P [ } } &.Y Y &.&.&.[ [ } } $.$.$.X.$.X.C j z N 5 i 8 s $ + $ + X * * > ; $ > X @ ; $ $ $ X * * + ;   * }. .& & & & & ",
">.n ..u.g l [ &.&.Y ] ] ] ] Y } } Y Y [ } } [ [ [ l j : N 5 i S s + + $ + # * U o ; $ . X @ ; $ $ $   % * + ; > % }. .& & & & & ",
">.n ..' j $.} Y ] F F F ] ] ] Y &.Y ] &.Y &.} &.} X.k : u.5 i 8 s ; + $ + # * U o ; $ . # X ; $ $ $ . @ * + ;   @ }. .& & & & & ",
">.n ..8.L } Y ] F 1.V 1.F F F ] ] ] F ] ] ] &.Y &.$.u < ' 5 i 8 4 $ + $ + o % U o ; $ . # X ; $ $ $ . @ * + ;   @ p.{ & & & & t ",
">.n ..8.L &.F 1.1.V V V 1.1.1.F F F F F F F ] ] Y [ K 1 ' 5 i 8 4 $ + $ + = - U o ; $ . # X ; $ $ $ > @ * ; ; > @ p.c.& & & t t ",
">.n ..8.9 Y 1.V V O.O.O.O.O.V 1.1.1.V 1.1.1.F F ] } p 1 ' q i 8 4 $ + $ + = - * o ; $ . # - ; $ $ + o @ % $ ; O @ p.4.t t t | | ",
">.n ..) 7 ] V O.v v v v v v v V V O.O.V V V 1.1.F Y w 1 ' q i 8 4 $ $ $ . o # % > + + > # - ; $ $ > # - - 3 ; # @ p.Z | | | a.h.",
"R.n ..) f F v R R R R R R R R v v v v v v O.V V 1.F 0.e ' q i 8 4 $ $ $ . o # X . + + > o o ; $ $ o # - # $ ; # @ n.b.c.a.a. .4.",
"R.n ..) H V R ! ! ! ! ! ! ! ! ! ! ! ! R R v v v V F 0.e ' q 2 8 4 $ ; $ > # - o . + . > o = $ $ ; o # # o ; + # @ n.d.Q.@._ d ^.",
"-.n ..) / O.! W W W W W W W W W W W W W ! ! R R v V P r.' q 2 8 4 $ + $ > # - o . + . # - o 3 $ ; > X X o ; , # % n.E *.C.s.s.C.",
"<.n ..) / v W B B B B B B B B B B B B B W W W ! R O.l r.' q 2 8 4 $ + ; o X @ # . . > # - = 3 $ ; = % % o + . # - n.E E *.E E E ",
"<.n ..) / R B h T T h h h h h h h h h h B B B W ! v L.9 ' q 2 8 4 $ . . o @ % # . . o X - = ; $ $ = % * o .   # - `.f.f.f.f.T.f.",
"W.n ..) / R h T T T T T T T h h h h h h h h h B W R L.9 ' q i 8 4 $ . . > @ * = , . o @ @ = ; $ $ = @ % -   > - % #XJ.J.>X(.>X>X",
"-Xn ..8.B.O.D T T T T T T T T h T T h h h h h h B ! L.9 ' q i 8 4 $ . . > @ * = . . o % % = , ; ; = @ % % = = - - #X(.D.D.D.D.D.",
"-X6 ..g.) L.O.D D D D D D D D D D D D D D D D h W v P e x.5 i 8 4 $ . . = @ * # = . o % % # = , ; = - % * = , - - #XJ.'.J.%X(.%X",
"-X6 U.g.x.8./ L.L.+X+X+X+X&X&X&X2X=X=XO.O.O.R R O.2Xe x.x.2 8 4 s ; > . = @ * % o = = @ % - - = , = - - % . , - - `.*.C.C.*.*.*.",
"-.6 n n g.g.) e e r.r.r.B.B.B.B.G.G.B.G.G.G.G.G.r.e u.I.q i 4 ( b , > , = @ % % o = = @ % - # . , o - - - , . # -  Xy.y.y.y.b.S.",
"<.n 6 c r g.~ ~ ~ ~ ~ ~ ~ ~ ~ ~ ~ ~ q q q q q q 5 5 q 5 i 8 4 b 3 . = , # @ % % o = = - - - o . , = - - @ , . - % n.5.5.,.,.,.5.",
"<.6 #.e.#.A A A A A A A A A ` ` r r r q q q q q 2.2.2 y y G ( b = o = , - - - % o , = # - - # . , = - % V.l.6.:X{.E.d.5.S.y.S.S.",
"<.6 #.e.#.c c c c c c c c c r r r r r r r r r r ` S A A 8 s Q , , = = , # - - - = , , o - % # . , = % {.`.#XoX5.5.d.S.3.i.c.%.%.",
"#.J #.e.#.6 J J 6 6 6 6 6 6 r r r r r c r r r ` A G A ` y 4 3 = ; = = ; = # - - = , ; = - - % {.n..X.X1XoX'.].5.d.5.3.^ q.i.i.i.",
"#.J e.e.#.6 J J 6 6 6 6 6 6 6 6 r r r ` ` ` ` ` A G A ` w.4 Q = , = = ; = # # @ - V.V.v.t.|.H.XXm.@Xd.f.(.%X'.d.d.5.3.^ q.q.q.i.",
"<.J #.e.#.J J J 6 6 6 6 6 6 6 6 6 c A c c c c c A G w.A w.4 3 # , = = ; = # - - % Z.H.;X).q.^ { b.E E f.(.D.'.d.5.,.%.^ q.q.q.q.",
"l.R.l.~.~.R.!.-.<.W.W.W.W.J J J c #.#.c 6 c c c A G w.A #.G 3 # , = = = V.z.H.;XF.F.).q.^ ^ 9.4.,.Y.E f.%XD.'.5.5.,.3.^ q.q.q.i."
};
