/* XPM */
static char *c249c56b2ebe4696f12684e8a40f22a8HqltcOYw5WEJ2dKY[] = {
/* columns rows colors chars-per-pixel */
"64 64 205 2 ",
"   c black",
".  c #010101",
"X  c #272826",
"o  c #030100",
"O  c #1F211F",
"+  c #020000",
"@  c #252422",
"#  c #030201",
"$  c #030302",
"%  c #292B2A",
"&  c #2C2E2D",
"*  c #272A29",
"=  c #222524",
"-  c #232422",
";  c #2A2C2A",
":  c #1C1A17",
">  c #2B2D2B",
",  c #020202",
"<  c #232320",
"1  c #050302",
"2  c #3F4141",
"3  c #272724",
"4  c #3B3F3F",
"5  c #3A4040",
"6  c #1D1E1D",
"7  c #040201",
"8  c #070504",
"9  c #191A18",
"0  c #1A1816",
"q  c #282622",
"w  c #282826",
"e  c #0D0B08",
"r  c #242524",
"t  c #010000",
"y  c #202322",
"u  c #060606",
"i  c #20201E",
"p  c #0A0805",
"a  c #141310",
"s  c #3D4141",
"d  c #252725",
"f  c #3C4040",
"g  c #3E4344",
"h  c #2F2F2C",
"j  c #393E3E",
"k  c #282927",
"l  c #2C2D2B",
"z  c #080705",
"x  c #0B0907",
"c  c #3D4242",
"v  c #050606",
"b  c #3A3D3C",
"n  c #393C3C",
"m  c #0E0C09",
"M  c #1A1E1D",
"N  c #0C0C0B",
"B  c #414646",
"V  c #2C2C29",
"C  c #3D4040",
"Z  c #262623",
"A  c #141411",
"S  c #171310",
"D  c #2B2B28",
"F  c #0E0F0E",
"G  c #1D1A17",
"H  c #3C3E3E",
"J  c #222421",
"K  c #2E2F2F",
"L  c #11110F",
"P  c #171716",
"I  c #1F1E1B",
"U  c #1A1714",
"Y  c #383835",
"T  c #404445",
"R  c #3B4243",
"E  c #3F4545",
"W  c #3D3F3F",
"Q  c #404243",
"!  c #343533",
"~  c #100F0D",
"^  c #1F1F1E",
"/  c #292A28",
"(  c #393B39",
")  c #212220",
"_  c #414140",
"`  c #333838",
"'  c #2D2C28",
"]  c #333432",
"[  c #1E1C1A",
"{  c #232625",
"}  c #0B0B0A",
"|  c #343837",
" . c #161513",
".. c #181917",
"X. c #363A39",
"o. c #404648",
"O. c #3B4141",
"+. c #2D2F2E",
"@. c #262524",
"#. c #434545",
"$. c #22201E",
"%. c #252826",
"&. c #383B3A",
"*. c #32322F",
"=. c #3D3E3C",
"-. c #303230",
";. c #1C1C19",
":. c #2A2A26",
">. c #373D3D",
",. c #373734",
"<. c #2E2D2A",
"1. c #21221F",
"2. c #1C1F1E",
"3. c #2B2826",
"4. c #323636",
"5. c #2E2B27",
"6. c #07090A",
"7. c #090C0C",
"8. c #393937",
"9. c #424342",
"0. c #060403",
"q. c #353735",
"w. c #3A3C3A",
"e. c #383F3F",
"r. c #151614",
"t. c #201F1D",
"y. c #040505",
"u. c #050403",
"i. c #333634",
"p. c #0E0E0C",
"a. c #2A2622",
"s. c #0B0D0E",
"d. c #3D4547",
"f. c #2F312F",
"g. c #1F2221",
"h. c #414444",
"j. c #394041",
"k. c #25221F",
"l. c #2D2E2C",
"z. c #3E403E",
"x. c #1C1E1B",
"c. c #070808",
"v. c #393531",
"b. c #363837",
"n. c #43403D",
"m. c #262521",
"M. c #303332",
"N. c #3B3B38",
"B. c #090908",
"V. c #090909",
"C. c #1B1C1B",
"Z. c #353B3B",
"A. c #31302D",
"S. c #24211E",
"D. c #302D29",
"F. c #2E3231",
"G. c #211D19",
"H. c #181B1A",
"J. c #1E1B19",
"K. c #020404",
"L. c #3F3D3A",
"P. c #332F2A",
"I. c #100D0A",
"U. c #191612",
"Y. c #211F1A",
"T. c #1A1C1A",
"R. c #1D2122",
"E. c #444340",
"W. c #3C3834",
"Q. c #33312D",
"!. c #3B3D3C",
"~. c #403E3C",
"^. c #434748",
"/. c #101211",
"(. c #3F3B38",
"). c #313433",
"_. c #11100D",
"`. c #3B3732",
"'. c #30312E",
"]. c #121311",
"[. c #23201C",
"{. c #14110E",
"}. c #1F1C18",
"|. c #0D0E0D",
" X c #222727",
".X c #2C2924",
"XX c #3B3935",
"oX c #252928",
"OX c #36332F",
"+X c #28231F",
"@X c #36312D",
"#X c #131413",
"$X c #414849",
"%X c #353632",
"&X c #1C1F20",
"*X c #454747",
"=X c #3D3A36",
"-X c #44494A",
";X c #343330",
":X c #484541",
">X c #454543",
",X c #464B4B",
"<X c #484745",
"1X c #474949",
"2X c #4B4B4A",
/* pixels */
"          a r r @ | 5 5 K 1.1.: B.        t + t   t z < % d ] $XE -.2.- 9 y.                  } C.) i ; Z.` % 9 ^ 0 u.    . $ 8 ",
"          L @.d @ q.j H '.< < I } t         t + t + z < l Z *.T T '.6 J 9 y.                  } ;.O x.k | i.:...6 P u.        . ",
"    . , t L @.r < ! &.( <.1.) [ } t t   + o o 7 0.1 p S.; J h f f ' x.J 9 y.              .   B.0 ^ [ k 4.f.Z P x.P u.      t o ",
"# $ u.v , _.@.r @ b.b w.l.1.= O ~ 7 o o 1 0.8 p p u p $.; J '.s =.' x.) ^ } .     t + + t   . e 9 6 ;.w 4.f.m.r.x.H.V.      + 7 ",
"x V.c.K.y.P %.{ @ b.b w.h < - d 0 p 1 0.p m I.e z u A @./ ) A.f !.D.;.i ) 0 B.# , 7 0.u.# $ e  .x.T.9 @.M.f.m. .9 ;. .c., . 7 8 ",
"{.L 7.} P - oX= - q.H 2 ;X@ - k 3 [ S {.S U.U  .A : @./ k ^ h j H P.J.i $.$.J.U S S S S a A U : C.....3 M.f.a.U.: ;.;.9  .a {.a ",
"m.@ O g.=  X XR.@.X.4 4 ! Z @./ ' ' 3.a.a.a.3.3 Z 3 w X { 6 *.>.n v.[.[ $.i $.[ : 0 0 0 0 U  .r.r.#X;.l F.K 5.G P ;.x.;... .A A ",
"k * %.= y R.R.&Xf.4 5 j ( D.q w D V D 3.3 3 w w Z @ ) ) i :.b Z.` N.P.[.[ : : 0  .a a a {._._._.a : :.F.+.K *..X}...P  .a ~ N } ",
"3 X - g.&X&XR.% n s 4 >.H L.v.Q.P.P.D.5..X.X.X.X3.a.q .XA.Y >.` 4.X.L.OX5.3.a.+XS.G.}.}.}.}.G G.k.:.> +.K M.] OXQ.5.q [.}.: U a ",
"OX,.;XK K K F.q.j f 4 j 4 2 >XE.n.L.(.=XW.`.v.v.v.v.v.XXY b.b.| ` X.b ( ! ] <.l 3.q +X[.$.[.[.< 3 / ; & F.).i.i.q.! h Z 1.I Y.: ",
"(.=.=.8.&.&.w.n n 4 f f 4 C h.#.9.n.~.~.(.=X`.Y Y `.Y 8.%X! i.| X.n &.>.&.q.h K l D q k.@ @ @ @.X V & > F.4.` 4.` ` -.w d < @ $.",
"L.N.W =.b b z.H n j f C f f g h.~.=XXX=XW.v.@X@XOXOX;X;X,.q.M.4.>.n >.>.-.3.S.S.[.Y.G U U 0 : : G.q D & M.` ` 4.4.& @ }.J.: G U ",
"5.3.V V D D h ;X8.b j 4 4 4 ( '.3.+Xk.+X+X[.G.G.G.Y.G.Y.m.V ] ` Z.Z.i.- 9 A _.I.m m e x p x x e m {.I l ).4.4.+.O r.L p.N e e e ",
"J.J.: : : : : t.A.j e.j b ] @ ;.: 0 U U.U.U.U.U.S S S S U.G h Z.` | J #X].]./.F m e m N m e m m m m a 3 4.4.F.i /.F /./.F p.p.F ",
"6 6 x.[ I I [ 9 < b.j.5 ( k ;.x.^ i 6 : : : ;.: G }.G.}.:  .Z j.e.| 9 P H.C.T.#XF F ~ F p._.S U 0  .A ) ` Z.F.9 #XH.T.C.r.].#XP ",
"x.C.9 [ S.a.w ) x.).j.R w.X ^ J - i ..#X . . .].a U [.a.k.C.1.O.j.X.T.2.2.9 ].V.u u u u v z e U.Y.I ..J ` Z.F.T.H.6 9 ].7.7.F /.",
"F s.V.} {.k.' X O M.e.R ( k < - J._.c.c.B.B.z 0.u.p S a.:.) < 4 j.X.6 O 6 ~ u.              . e G 1.x.@ 4.` F.x.2.x.~ $ , y.V.N ",
"u y., + # S w % J ).>.O.X./ - < a 1 t # # 7 # + t t z }.D @.q 4 j.&.O y 6 B..                 8  .1.^ 3 ` ` F.^ O 6 N . $ u } |.",
"$ $ o + t p < % @ i.e.O.&.; r < L # t t + . + o + + 1 S / X :.E j.j y = 6 V..                 1 A ) i k Z.Z.4.) g.6 |.$ v V.N L ",
"# # 7 o o p $.% @.q.f c b ; - 1._.,     t + o o o o 0.U.; k D o.R 4 g.y x.B..                 8 P - 1.:.X.>.4.g.g.6 |.y.c.} F #X",
"o o 7 o o e @ % @.i.O.E !.; J 1._.# t   t o o o o o 8 J.& % V B d.n O g.6 B..                 z 9 r < :.X.>.).O O ^ p.u V.N /.r.",
"# # + + o I.X > 3 %Xs E 8.3 ) i L # t t + o 7 o + + 8 I +.% ' B d.( O y ^ B..                 z 9 r ) k Z.Z.M.^ g.i ~ u V.s./.P ",
"7 # o o + m 3 ; Z ,.s g ( w - < {.# t + + # 1 7 o 7 8 J.K % V -X$X=.J r < } .                 z 0 d < / n j i.) = J L u V.s./...",
"# $ 1 1 7 e 3 l 3 ,.C 2 N.k r @.A 7 + + o 7 u.u.0.0.z J.f.; D #.B =.J d @ N .       t . . , . z : X < / &.b ! J - r ].z B.N ].P ",
"u.8 z z 8 m w l.3 ,.W C Y w r @. .0.7 7 1 8 z z x B.x J.f.% D Q g N.< d r F 7 + t o 1 1 0.8 u.z : X - D b &.*.< r d  .p x N A 0 ",
"x e m p.B.~ w & w 8.2 2 Y k d * T.x 8 8 p e m I.p.N } I f.; V #.Q N.J d * 9 p 1 1 8 p e x z 8 p.t.k r V H b ] < - * 6 m e ~  .;.",
"{.a L |.} 0 l K k 8.Q Q N.D d ; @.S e e I.{.S A L |.P / f.% V #.Q L.k.@.k 3 U.m e I.{.A L |.].i k * - D w.b ,.m.@ / k : {.a : i ",
"J.;.P #X6 l -.+.k 8.Q ^.z.<.3 V <.w Y.U G G.[.t.[ $.l -.K * V h.g n.q 3 / D V q k.k.+Xq @.@ 3 / / X - l.4 H XXa.@./ l h D w 5.D.",
"D.A.h l.-.-.F.& / =.#.T W A.k l h *.;X*.Q.Q.;X;X;X*.K +.& %.*.B R _ P.Z k / V V D / / V l ; / X d - X q.O.j N.D.m.k > & +.> & & ",
"f.] -.-.+.& & % ,.^.^.g Q XX' D l.h h <.<.<.h *.h l.; % / h #.E 4 Q n.D.3 3 w w Z Z Z 3 w 3 3 @ @ :.Y s j n z.L.P.w X X X @ = = ",
"<.A.h V > % K 8.*X,Xo.g Q >Xn.`.@XQ.Q.Q.P.P.@Xv.OXOXQ.Q.N.9.B c j 4 #.:X(.=XXXW.W.W.`.W.=X(.(.W.=X~.H j 4 C 2 9.:Xn.=X,.%XOXOX*.",
"n.E.>X_ E.E.2X,Xo.-X^.T g B 1X2X2X<X<X:X:X:X:X<X<X<X:X<X*Xc c 2 f s T T Q Q z.2 ~.~.L.N.=._ _ =.!.w.w.!.4 c Q c T B s n | q.Y N.",
">X*X-X#.T B 1XB g T ^.B g T ^.-X*X9.>X>XE.n.n.>X9.Q C 2 _ W H c T T g ^.*X9.~._ _ ~.L.=XL._ z.=.=._ W H s T B g E ^._ 8.( X.( 8.",
"n.~._ 9.2 2 9.9.2 c T T T B -X*XL.`.`.W.W.v.@X@XOXOXOXv.L.z.n s T E o.T q.D.a.a..X.Xa.+X+X+Xa.a.5.OXN.=.2 B B B c i.3.k.k.k.m.k.",
"S.$.$.S.$.$.k.<.=.g R R g W '.1.[ J.G G G G 0 0 U U U : G.' z.c e.s b.1.....P  . . .U.P U.U.U.U U : a.w.g R s q.1.P r.#X].L {.].",
"i O ^ I I I [ [ l.c d.c H l ^ 2.O O ^ I I t.i $.t.I Y.t.[ [ %XE R b J T.2.O O ^ 6 6 ^ i i $.S.k.S.I t.'.g g X.r H.M 2.2.C.T.9 C.",
"d r - 3 3.:.X g.J Z.d.E b k g.{ k / r ^ i O 1.i S.a..X3.@.6 D o.d.5 O g.= %.@.C...9 T.9 P : [..X5.3 1.& g d.Z.y &X= r = 9 r.P P ",
"..r.]. .Y.D.h X J X.g o.b / r X @ 0 ~ F L L F N e {.[.P.' - D o.d.j g.{ r ;.p.c.V.} } V.u 8 x G 5.V Z l.O.R X.J y = 9 N y.c.c.c.",
"} V.u 0.p Y.h ; r | O.g ( / d r  .z y.u c.c.c.u.7 1 I.a.h X ' 2 R n y d J ~ $ , $ y.y.y.$ o o m $.l X h 4 5 ` - = g.~ .   , , $ ",
"u v $ $ # _.w > 3 X.O.R ( ; X - a u., $ u.u.u.u.7 7 8 G l X <.g j.>.= %.J N ,   t , , $ # 7 + 8 : / k f.s j.` { = O N           ",
"y.u.u.u.7 e @ % 3 X.O.E n ; d ) L $ . . # 1 1 1 1 1 8 0 l w <.E j.j = { O } .     t . # # # o p : ; k f.c R Z.{ = 6 }           ",
"1 1 1 7 7 I.@.; X X.R E b ; r 1.~ $ . . + # 7 # 7 7 z I > k <.g R b y = O } .     . + + + + + x t.; k h 4 R X.= y 6 }           ",
"1 # # o o {.k > X b.c E X.X J i ~ $ .   . # 7 o o o z $.& k V s R | O y i } .     . o # . + + x i > k h 5 j.4.O O x.}           ",
"$ # . + + ~ w % 3 b.c g | d J i ~ ,     . # $ o + + 8 t.& X D g R X.O = ) N ,     . , # . + + x I > X h O.O.i.) y ^ N         . ",
", $ , o o I.w ; Z q.f c b.d - ) _.,     . , # # . o 8 [ & X D c g w.1.{ @ N ,     . , # # # 7 x I l X l.4 s b.J = ) |.      . . ",
"$ u.u.u.1 I.w ; Z ,.H 4 %XZ - J L ,   . , 1 $ u.8 8 z [ & %.D 2 s 8.1.d r p.$ . . 7 u.8 z c.u x I l X l.4 4 q.J r J ~ + . . # 1 ",
"8 z B.} 8 I.3 ; @ ,.W H ] r = = #X1 # # u.z p x B.B.z [ & X D Q 4 Y 1.d %.#X8 1 u.z x e N N B.N i > k h C 4 %XJ r {  .1 1 1 z x ",
"m p.N } u A k ; Z Y W W ! d = %.C.e 0.8 x m ~ |.} B.F @ & %.D 2 4 XX1.d * i ~ p p m _.a L |.|...X & k h C H ,.m.r * O p.p p m _.",
" .r./.|.A < > % Z ,.W 2 Y X = * d ;.{._.a U.0 P #Xr.1.; > { D C 4 =Xk.@./ ; 1.: 0 : Y.i 6 C.^ k & > X K C C XXq d ; ; < : 0 ;.Y.",
"< @ O i d l & * Z 8.f c 8.k = * % % 3 @ @ Z w d r X ; ; % y h c 4 L.a.Z % & K l V ' <.h l.l l.& & * k ! c C (.5.3 ; +.f.l.V l <.",
"& K & & ; % * r <.H s e.( h Z %.* > & > ; > & & > ; k %.d X ( c j _ OX:./ ; & +.& & & K K h l / / / *.H c 4 z.v.:.% & +.-.+.K +.",
"> & > ; k X k V 8.c O.j b N.Q.V ; > & > > > l l.l ; :./ <.%Xs e.n 2 n.`.;X*.] ] ] ] ] ] ! ] *.A.*.,.=.Q O.f 9.E.=X] ] ! i.! q.! ",
"] ! ! ] *.Q.,.w.H 4 4 j j C ~.N.b.q.Y 8.Y Y Y Y Y Y v.XX=.!.n j 4 C Q >XE.z.z._ 9.9._ _ _ _ n.~.n.9.z.H C g h.#.<X>X_ 2 9.#.>X9.",
"C C C 2 =.=._ H n n 4 4 5 5 c c O.s c Q Q 2 f C C z.w.~.W ( b.n 4 f s g T g T B ^.*X^.T T #.9._ 9.9.z.H 2 B B B o.^.B ^.^.-X,X-X",
"f 4 f C w.( !.!.w.n 4 f f O.R 5 >.>.4 C C H &.n b b 8.w.=.w.&.n >.4 2 B c H !.C Q h.2 H H 2 C =._ >XQ W Q ^.-X^.$X^.Q C Q T #.h.",
"b.q.Y 8.%X*.,.( H f 5 5 f 5 e.| -.f.-.] ] *.V l K A.A.*.,.8.!.4 j 4 f >.).l / ; +.f.l.D D l.h h *.Y =.2 T $X-XB R ` f.<.h f.*.*.",
"^ 6 t.Y.G.}.[.3.Y C 4 j j b.* x.......9 9 9 9 ..0 0 0 : I 3.=.s >.j ] ) H.H.H.H.C.C.6 2.6 6 6 ^ t.S.<.z.$Xo.E &.%.2.2.2.&X2.^ g.",
"H.M T.;.: : 0 0 :.b 5 e.&.X 9 H.M 2.M T.C.M 2.2.x.I t.I ;.;.] E j.b ) M R.= = y g.g.= { { r 3 k k r r i.$X$X5 * &X XoXoX X= { oX",
"R.R.O 1.m.q m.^ t.i.O.R b.- M g.= = R.M M M 2.C.6 k.a.3.@ 6 / o.d.f g.y  XoX{ &XM M &X2.M ^ m.' A.l X M.$X-X5 oX X% % * y &XR.y ",
"#X/.F a G :.' d i i.5 R X.d g.= O r.N 7.s.s.s.V.B.~ G.D.D J k E d.4 y %.%.x.|.6.7.s.s.7.6.V.|.t.A.-.% ).o.$X5 * * % g.#Xs.F /./.",
"v y.,   0.}.' / < i.>.j.q.d y g.L $ , K.y.v y.$ . . e m.l d D C O.w.J %.- F K.K.v c.6.6.c.u v F @ -.& ] g g j * % %.#Xc.6.7.7.s.",
"K.K.. .   m Z * - q.>.5 | X = O F .   . , K.K., . . u.0 ; d ' 2 e.n { %.- F K.K.y.v v c.u u u } 6 +.& i.o.d.e.% % %.#Xc.6.6.6.7.",
". , , , . x 1./ Z X.O.R X.* y 6 |..       . . . , o 0.U % d ' E j.4 =  Xg.s.K.K.K.y.y.v u u u N i K & i.o.$XO.% * = ].c.6.6.6.6.",
". . . . + m @ * Z 8.O.g &.oXy 6 |..         .   . + 8 [ % %.' s j.H y = ) s.K.K.K.y.y.y.v v 8 ~ - F.& i.E $XO.* oX{ #Xc.6.6.6.7."
};
