/* XPM */
static char *f0b0282eb4e843fc932a9d55db2fd639HxPzKjB9WbbieDp7[] = {
/* columns rows colors chars-per-pixel */
"64 64 205 2 ",
"   c black",
".  c #030100",
"X  c #040404",
"o  c #292C2B",
"O  c #020202",
"+  c #2D2E2C",
"@  c #1C1E1D",
"#  c #1F1E1A",
"$  c #1F201F",
"%  c #22221F",
"&  c #252521",
"*  c #2B2B29",
"=  c #3B3F3F",
"-  c #252726",
";  c #5B6E26",
":  c #070503",
">  c #2F302E",
",  c #596B24",
"<  c #161715",
"1  c #7C3D0C",
"2  c #3C3E3C",
"3  c #3F4546",
"4  c #282A28",
"5  c #3A4041",
"6  c #3F4040",
"7  c #202322",
"8  c #272724",
"9  c #3D4343",
"0  c #0B0905",
"q  c #242624",
"w  c #181917",
"e  c #1B1C1A",
"r  c #151512",
"t  c #41403D",
"y  c #3C4141",
"u  c #313331",
"i  c #222523",
"p  c #080909",
"a  c #414443",
"s  c #383D3D",
"d  c #77390B",
"f  c #2A2926",
"g  c #85420E",
"h  c #485519",
"j  c #323635",
"k  c #813F0D",
"l  c #353A3B",
"z  c #0B0B0A",
"x  c #0F0D0A",
"c  c #566722",
"v  c #414647",
"b  c #43494A",
"n  c #373938",
"m  c #0C0D0D",
"M  c #536420",
"N  c #505F1E",
"B  c #111312",
"V  c #15120F",
"C  c #F4B670",
"Z  c #060606",
"A  c #4D5B1C",
"S  c #EDA45D",
"D  c #0F100F",
"F  c #484B4B",
"G  c #73370A",
"H  c #444341",
"J  c #12100D",
"K  c #1C1916",
"L  c #3A3B39",
"P  c #F2B26B",
"I  c #302D29",
"U  c #181512",
"Y  c #474643",
"T  c #33312D",
"R  c #EDC57F",
"E  c #EBC37C",
"W  c #363734",
"Q  c #25221E",
"!  c #455016",
"~  c #6E3409",
"^  c #663109",
"/  c #343430",
"(  c #EEC783",
")  c #EEA961",
"_  c #424C15",
"`  c #9A4D12",
"'  c #5C2F0B",
"]  c #3C3935",
"[  c #E1B46F",
"{  c #EAC079",
"}  c #E6BB74",
"|  c #773B0D",
" . c #23201B",
".. c #ECA15A",
"X. c #89440E",
"o. c #E2944E",
"O. c #3F3C38",
"+. c #BE7434",
"@. c #D68C47",
"#. c #3A3531",
"$. c #2A1605",
"%. c #B97738",
"&. c #F1AD66",
"*. c #E19E59",
"=. c #160D02",
"-. c #B07237",
";. c #7F4112",
":. c #955825",
">. c #CB8441",
",. c #C47E3C",
"<. c #9A5E25",
"1. c #BF8546",
"2. c #615218",
"3. c #D5853F",
"4. c #C59D5B",
"5. c #525418",
"6. c #DA9B57",
"7. c #E18A47",
"8. c #4E5117",
"9. c #91490F",
"0. c #D9904A",
"q. c #555A1B",
"w. c #AF6C2E",
"e. c #331A06",
"r. c #D29653",
"t. c #1F1609",
"y. c #E99C54",
"u. c #4E2D0C",
"i. c #8D4913",
"p. c #B86F2E",
"a. c #DBAB70",
"s. c #A76B31",
"d. c #562B09",
"f. c #CD7D3A",
"g. c #44423B",
"h. c #2B271F",
"j. c #40240D",
"k. c #5A621F",
"l. c #BA7E3F",
"z. c #AA6528",
"x. c #543516",
"c. c #4A4812",
"v. c #EFAF67",
"b. c #824717",
"n. c #5D3413",
"m. c #725C20",
"M. c #D4A964",
"N. c #373328",
"B. c #CC9450",
"V. c #261B10",
"C. c #8A5E23",
"Z. c #CC8C4A",
"A. c #5D3B1B",
"S. c #C19754",
"D. c #8B4D1B",
"F. c #352F22",
"G. c #9E632C",
"H. c #635D1E",
"J. c #956E34",
"K. c #452206",
"L. c #483B2D",
"P. c #9F773A",
"I. c #2D1D0F",
"U. c #67401D",
"Y. c #433523",
"T. c #3F3B27",
"R. c #B18A4B",
"E. c #D1A15E",
"W. c #44491E",
"Q. c #6C5124",
"!. c #32390F",
"~. c #AB7E3F",
"^. c #7F672B",
"/. c #A45A1F",
"(. c #534124",
"). c #8F511E",
"_. c #442C16",
"`. c #C06A2C",
"'. c #8C682C",
"]. c #EFCA86",
"[. c #9D5013",
"{. c #E0B26B",
"}. c #352414",
"|. c #393515",
" X c #D0B288",
".X c #725018",
"XX c #B7A07A",
"oX c #5F4325",
"OX c #D6C29D",
"+X c #97541E",
"@X c #544913",
"#X c #B08C5E",
"$X c #E5A763",
"%X c #714118",
"&X c #84551C",
"*X c #C6A073",
"=X c #9B6D2E",
"-X c #D6BC92",
";X c #98866B",
":X c #E7BA84",
">X c #9C7C3C",
",X c #8B7960",
"<X c #3C2918",
"1X c #E1CEA8",
"2X c #2B2F0B",
/* pixels */
"            K o q 8 2 5 = & @ $ J           .       : 8 + - u v 9 o @ % r                     U i $ % s l + < @ K X   O X Z z : ",
"            U 4 i & = 5 5 & @ & V           .       . % o q u b 3 > @ q w O                   r q @ % s l u < $ # X       O : O ",
"            r * i & = s 6 8 $ 8 U             .   . . % + & > a a > @ 7 K O                   V q e # j j T < @ e X         O . ",
"O     O O   r * 7 % s l L & @ q r         . . . : : .  .o }.n.n.L.* e i I.$.                  J % e # n u * r @ e X         . . ",
"0 . X : Z O V 4 i & 6 s L & $ - e . . . . : 0 0 0 Z : }._.| | x.x.n.' ' ~ K.e.e.=.  . .     . r % w # j u * r e @ m       . . : ",
"V z z Z O X e 4 i & 6 l 2 8 $ - 8 x . : 0 x J x Z X e.u.^ g ~ k i.i.g k 1 k X.k ~ $.: X O : r # @ < # u u I V w # e z O O . : V ",
"& r B m m @ - - 7 & 2 = a f $ 4 f f K V U K K K I.I.u.^ G | 1 g k k g X.g g g g | ' I.I.K K e e e B # j u I U w # # # K U U U B ",
"f f f - - - - - @ f 9 s = I % f * + > I I I F.' k g d ~ G d 1 1 g g k k 1 k 1 g g g 1 ^ V.< r r B J * j + T # r e e e w r r B z ",
"8 4 4 - i 7 $ @ @ L 9 s s O.f & * * * 8 8 & j.' ~ 1 1 d d 1 G 1 d g 1 1 k 1 g d X.1 G ^ e.x x J U 8 j + + / N. .w < r J x z p B ",
"/ & 8 % @ @ @ 7 u 3 y s l 6 g.#.T T T I I f <X^ k 1 1 1 1 g d d G ~ k 1 k d g 1 g X.1 1 d j. .h.+ o o > u u W ] #.I & Q  .# < K ",
"O.O.2 L W n n n n = = = = = v F F Y t H t O.' k 1 d d d 1 g 1 G 1 +.| 1 k 1 k k ~ 1 1 G ~ ' Q q q * + + j j j j j u 8 $ # $ # $ ",
"O.O.2 = L s s 2 s s = y y = = a 6 t O.2 ] Y.d d 1 d 1 ~ G k | ).D.*.D.~ k 1 1 ;.%.1 1 G G d.h.- * > o > j l j j l j f 4 q 8 % K ",
"I O.O.6 6 s 2 6 2 n = y y = y b H ] #.T.Y.' k d k d k G | d :.Z.6.P :.:.1 G | w.S <.~ ^ d K.V V K 8 * > j l j j o # V V V U V z ",
"#  .# #  . .# Q I 2 = l = y 2 f K U U V.^ G G d k d k d G.D.r.-.).:.$X-.| %.-.G.s.%.D.~ G K.: : : 0 8 j u j > < p p p Z : : Z D ",
"@ w w < U U < r U > 3 s s L % r w e w w V.~ G 1 1 d k d 1.$Xs.;.<.s.6.r.*.P -.b.| :.%.~ ^ j.V V V m r j l j # m r < w < r r < < ",
"e 7 7 % & & & % e # s 5 y W w $ 7 q - # ' d d d d d 1 ;.*.6.-.$XC C C C C C S ) S l.-.~ d.t.U  .# < r j l l e < @ $ % < B B < D ",
"D < B D U  .I I i e s 5 3 W @ q q % J x ^ ~ 1 d ~ 1 G G.P C C r.1.r.C C C v.f.1.6.&.Z.~ ^ $.: K Q @ < j l l e e $ < Z O X p z z ",
"Z p X O   :  .+ 4 $ s s 9 / $ - # 0   O ^ ;.;.^ d d G 1.C C 6.-XOX X$XC C *.*X1X Xr.1.d d.=.  z % 7 K j j n # $ % x   O X p m m ",
"X X X O .   x f o % s s y W % - # X   =.+.7.o.;.G G G Z.C C a.XXx.;Xa.C C r.oX,XOXE.l.1 ;.:   : $ 7 # s l l % $ 7 D O X Z z D D ",
". . O . . . 0 q o % = 5 9 n % q e X   =.w.7.`.k ~ G G l.P P [ XXu.x.a.C C B.u.u.-Xa.l.<.).:   0 % i # l l 5 7 7 % D X Z z m B r ",
". . . . . . x 4 o & 2 y v L % q # X     b.y.7./.G ~ G w.S S S a.#X*XC P &.S -.#X:X..0.w.d.    x q i  .W s = $ $ 7 D X p z D < < ",
". . . . . . J + o & 2 9 3 / $ & e X     $.f.o.`.`.z.;.o.....S &.P P &.S S S S ,.S ..y.:.=.    x - i # n l n @ $ % J Z p m B < < ",
". . O . . . x + o & 2 9 3 / @ 8 # X     . ' @.7.f.o.@.......S ) &.C 0.f.7.o.7.+.) S ..G.0     z - q # s s 2 % 7 8 V Z p m B w w ",
"O O X . . . x + + & 2 9 a W $ 4 % :   . . : d.+.o.@.>.S S S ..+.*.C P o.f.3.+.*.&.) S :..     x f q # n s 2 % 7 4 r Z p m B < < ",
"X X X : : : x > + & 2 = 6 / $ 4 % : . . . =.d.G G G D.*.) ) &.v.Z.6.C P P ) ) ,.*.&.*.n.X Z O z f - # 2 l L % i 4 r Z 0 z B w w ",
"0 0 0 z m p x + + & 6 a 6 / $ 4 q 0 : : : 0 e.d.G b.-.%.S ) v.P P *.Z.>.>.>.0.v.P ) w.$.0 Z O J 4 - % 2 = L % i o $ 0 0 x r e e ",
"V J V D m Z < > > 8 H a 6 W % 4 + K 0 0 0 x V j.| s.r.1.+.y.S &.P P v.) ..) P P ) -.j.D z Z r 8 4 - $ L s O.& % 4 * K x J < # % ",
"K K w B D # > u > 8 6 a b ] 7 * + + # U U K # # C.B.E.[ E.w.>.y.) &.v.v.) v.P 6.z.A.Q & & & f * 4 q $ = s t h.& * * > * 8 f I I ",
"I I > + + u u u + 8 Y 3 3 O.& * + > / T T T / T.l.{.M.{.{ [ Z.w.p.0...) ) ..%.w.B.P.F.+ * * 4 - q $ I 9 s 6 T % 4 + + > + + > + ",
"> > j u u > + + - ] F v y H T 8 + + > + * + + N..XS.E {.} ( } M.G./.z.z.<.s.r.r.{.E.A.8 8 & & % & I a 5 l = H N.8 - - - & i i i ",
"I I > + * * o + L F b 3 y a Y ] T T T T I T N.h ; H.4.E {.R ( } 4..X+.3.C.'.{.{.[ } J.] O.O.] #.t 6 s s y 6 a Y g.O.W / / / T T ",
"g.g.H H t H H F F v b v 3 9 v F F Y Y Y Y Y W.; ; ; ^.[ } { ( { { P.2.w.2.m.[ { [ R R.L.t 6 6 2 L L 2 s 9 9 y 3 v 9 L n W W L L ",
"H H Y b a 3 v F 3 9 v b 3 3 a b b H Y v H g.A ; ; ; k.R.E } ( E E M.H.5.k.2.M.E [ ( M.oXt 6 2 2 t 6 s y a v 9 3 b a L L n L L L ",
"t t t 6 a 6 6 H a y 9 3 3 3 b F H ] #.#.] T.; ; ; ; , ^.} { R ( E } m.8., c.4.R } R {.Q.Q h.h.h.I ] 2 6 3 v v 3 W f Q Q Q Q Q Q ",
"Q  .# # # # #  .I a 9 5 9 a L Q K K K U U _ ; ; ; ; c 2.M.R R ].( R '.! A q.R.E E { } ^.V.U U U U K #.3 5 9 2 % r r B B D J B B ",
"$ $ $ $ # # # e e u b 9 9 L # e $ 7 $ $  .A ; ; ; ; M 5.4.R ( ].].( R.q.A c ~.E ( R E >X|.Q Q & % e Q 9 3 y 8 w @ $ $ @ e e e e ",
"q - - q f * * 4 $ % 9 3 v W @ q - o 4 $ h., ; ; ; ; N 8.4.R R ( ].( E.c., c P.R E E E R.|.# & I * i $ 9 3 3 i @ i q q w < < < < ",
"w < D D V # T > - % 9 9 b W % 4 - # z z !.; ; , M , h 5.4.R R ( ( ( a.q.; c J.E R R E S.c.: 0 h.I 4 % y 9 9 i 7 q e p O X Z Z p ",
"z p Z X . :  .> o & = 5 3 / 7 4 # : O Z _ ; ; ; , A ! q.4.E E R R ( [ H., c '.} E E { S.@X=.  J * o & = s 5 & i q x       O O O ",
"Z Z X X X O x * o & 9 5 9 / q 4 # X O 0 h ; ; ; ; ; h 5.R.} } { { E {.H., c m.[ { [ S.J.5.t.. 0 f o & a 5 5 - i i D             ",
"X X X X X . x 4 o & 9 5 v W i - e X O J A ; ; ; ; , ! h m.~.P.'.~.1.C.k.c c q.'.'.2.5.5.h !.: x * o & y 5 3 - 7 7 m             ",
"X . X X . . J o o 8 6 9 b W 7 - e X O !.A A A h h h _ h A ! ! ! ! 8.A ! ! h h A c h c , , ! 0 V + o 8 2 5 9 i 7 7 m             ",
"X X . . . . U > o 8 2 9 3 > $ q K X O _ , , , ; ; ; N h M M c c c N ! ! , M _ N A ! , , , ! 0 V + 4 & = 5 s $ $ % m             ",
"O O O O . . J + o & 6 9 3 > $ - e O   _ , , ; ; ; ; N ! ! ! ! ! h _ N ! M h h _ N h N N h 2X: x + o & y 9 y % 7 q D             ",
"O O X O . . J + * & 2 = 9 T $ 4 # O   =.@X8.q.N A 5.@XN M c , M h A N _ _ _ N h c q.=Xl.s.$.. J + o & 2 5 6 & 7 - D         O O ",
"O O X : Z : J + 4 % 2 = = + $ - @ X   0 w.o.>.,.>.0.,.H.M , , c A c M h A h M N M k.1.@.@.j.Z x + o & 6 = L % i - B . . O X : X ",
": 0 0 z m Z J + o & 6 6 = + $ 4 7 Z : =.+.........@.0.m.c , c c A , c A A A c c N k.l.,.@.j.X r + o & 6 y 2 & i o @ : : : 0 x 0 ",
"x J B m p Z # + o & 6 = 6 > $ - o w : 0 z.>...@...%.@.<.k.; ; M N ; c A N N c , h q.<.+.-.I.< * + o & = = t & i 4 * < 0 0 J V J ",
"r K w r B % + + 4 & 2 y v / $ - 4 o % K n.p.0.p.y.,.&X2., ; ; N N ; M N M N c ; h N &Xp.U.f + > + 4 & a 5 H f q * + > * 8 8 f # ",
"& > > + + + + + q 8 a 5 5 W % - o o > > T A.b.z.>.0.m.; ; ; ; c ! A h M M c ! h c N Y.L.u u + o o i T v 5 6 T & o > > u u u u + ",
"+ o + o o 4 - q & L 3 5 l 2 I % - 4 o 4 4 4 * c.2.2.k.; ; ; ; , M h h M c , M c , N F.+ * * 4 - f / Y 9 s y Y N.4 o o + o + o > ",
"o * + + * f f I O.9 5 s s = g.] T > u u u T T _ c c , ; ; ; ; ; , N N M c , , , , N T.t t t O.O.Y a = = 9 a a F Y t t t t H t j ",
"/ 6 6 a H t t Y = L s = 5 = y a a 9 9 a a a 6 T.! M , ; ; ; , ; , M N M c , , , A W.g.3 a a 6 t a 2 2 = 3 3 3 v v v v b b F b H ",
"6 5 5 = = L n 2 L L l = y = 5 5 s s 5 y y y s = 2 (.C.m.2.8.! ! ! ! _ h h 8.2.(.g.b v a v b a 6 Y Y = 6 v b v v b v v b b F F b ",
"y 6 = a a 2 L t 6 = y 5 5 5 9 3 = n n 2 2 2 W / n oXf.3.3.f.p.(.L O.<.p.f.3.f.U.] n / I u W W W t H 6 a b F b F v L / W n L L a ",
"W % $  .Q  .# & / t y s = 5 s q w w w w K K w < U %X3.y.o.%.).A.L L.p.3.o.@.).X.k u. .e e e e e # & t b 3 v v + e e e e e @ @ u ",
"@ w w w w < < U K / 3 s s n # r w e e e e e @ @ }.z.o.,.i.9.` X.n.%Xf.o.0.i.[.` ` 9.g x.8 q 8 8 q $ * b v v > @ 7 - - - i q - $ ",
"e 7 7 7 & & & % e  .y 5 y u w $ 7 - - $ $ $ 7 Q ^ ,.>.i.` ` ` ` 9.k +X+.+X` [.[.[.` ` k _.8 I T > - q v b b 4 i o o > - 7 i - - ",
"$ < B B <  .I * 7 # = 5 3 u @ i i $ D m D D D t.k i.;.g ` ` ` ` ` 9.G X.g g g k g g X.X.u.x r T / + - v b b 4 - o - < m D B B 7 ",
"B Z X O   : Q + 4 % 2 s 9 > $ - e :   X X Z Z 0 K.1 9.9.X.g k g g X.1 x.G k X.9.9.X.k ' t.Z X K u > f a 9 3 4 4 o < p p z m m B ",
"Z X O O O   J * 4 % 2 l 5 > 7 - e O     O O O O . =.e.^ | g X.X.k | _.I h.t.$.e.e.$.t.z Z Z Z J + > 4 b 3 3 o o o < p p p p z m ",
"X O O O O   0 8 4 & 9 5 9 u 7 i w O         O O O . . V * h.F.g.t = 7 - $ p O X X X X Z Z Z Z V + > f b 3 b o o 4 r p p p p p z ",
"O   O O   . x 4 4 & y 5 3 j $ i w O                 . K o - * y 5 2 $ q 7 p O O X X X X Z Z Z < u > * a 3 b o - 4 < p p p p p p ",
"  O       O r o 4 8 2 5 9 + @ 7 < O         O       . $ o - f = 5 j @ i $ p O O X X Z Z Z Z Z w j > 4 9 3 9 - - - r p p p p p p "
};
