/* XPM */
static char *_e02d38791c14910b3bb41a409104bafzSYvJ7rAJqCrfg8G[] = {
/* columns rows colors chars-per-pixel */
"64 64 154 2 ",
"   c #261E17",
".  c #291F17",
"X  c #291F18",
"o  c #2D231D",
"O  c #2F2621",
"+  c #302722",
"@  c #332A24",
"#  c #392F27",
"$  c #362E29",
"%  c #382F29",
"&  c #3A3027",
"*  c #36312C",
"=  c #3A332D",
"-  c #3D3631",
";  c #3F3934",
":  c #3F3C3A",
">  c #423B35",
",  c #433D39",
"<  c #494037",
"1  c #46413C",
"2  c #4A433D",
"3  c #52473D",
"4  c #52483F",
"5  c #474441",
"6  c #4B4642",
"7  c #4D4945",
"8  c #4E4B49",
"9  c #544C45",
"0  c #584F45",
"q  c #524E4B",
"w  c #595147",
"e  c #54514D",
"r  c #5A544D",
"t  c #555453",
"y  c #5B5652",
"u  c #5D5955",
"i  c #5C5B5A",
"p  c #605B55",
"a  c #685F57",
"s  c #625E5B",
"d  c #65615E",
"f  c #68625D",
"g  c #605F60",
"h  c #5F6061",
"j  c #656463",
"k  c #696663",
"l  c #6B6866",
"z  c #666768",
"x  c #67686A",
"c  c #6B6B6C",
"v  c #726C67",
"b  c #716F6D",
"n  c #72706E",
"m  c #6D6E71",
"M  c #706F71",
"N  c #6F7173",
"B  c #707174",
"V  c #717274",
"C  c #717375",
"Z  c #737374",
"A  c #727375",
"S  c #707376",
"D  c #717376",
"F  c #707377",
"G  c #717377",
"H  c #727376",
"J  c #717476",
"K  c #717477",
"L  c #727476",
"P  c #727477",
"I  c #737577",
"U  c gray46",
"Y  c #737375",
"T  c #787676",
"R  c #797777",
"E  c #7A7776",
"W  c #7A7777",
"Q  c #787675",
"!  c #7A7877",
"~  c #717478",
"^  c #727478",
"/  c #727578",
"(  c #737578",
")  c #737579",
"_  c #737678",
"`  c #737679",
"'  c #73767A",
"]  c #747578",
"[  c #747678",
"{  c #757678",
"}  c #747679",
"|  c #747779",
" . c #757779",
".. c #767779",
"X. c #75777A",
"o. c #747679",
"O. c #787778",
"+. c #75787A",
"@. c #76787A",
"#. c #77787A",
"$. c #77797A",
"%. c #76787B",
"&. c #76797B",
"*. c #77797B",
"=. c #76797C",
"-. c #77797C",
";. c #777A7C",
":. c #77787B",
">. c #797878",
",. c #7A7879",
"<. c #7B7979",
"1. c #79797A",
"2. c #78797B",
"3. c #7C7A79",
"4. c #7D7B7B",
"5. c #787A7C",
"6. c #787A7D",
"7. c #797B7D",
"8. c #7A7B7D",
"9. c #7B7C7E",
"0. c #7B7D7F",
"q. c #7E7C7D",
"w. c #7A7B7C",
"e. c #817F7F",
"r. c #807E7D",
"t. c #83807F",
"y. c #84817F",
"u. c #7B7E81",
"i. c #7D7E80",
"p. c #7F8081",
"a. c #808081",
"s. c #828080",
"d. c #818082",
"f. c #838182",
"g. c #828283",
"h. c #838283",
"j. c #848282",
"k. c #848283",
"l. c #858484",
"z. c #878584",
"x. c #868585",
"c. c #868586",
"v. c #878586",
"b. c #868587",
"n. c #868687",
"m. c #878687",
"M. c #828283",
"N. c #898685",
"B. c #8A8887",
"V. c #838588",
"C. c #87888A",
"Z. c #888889",
"A. c #8A8989",
"S. c #8C8B8A",
/* pixels */
"  + @ @ @ @ @ O + O @ $ @ @ $ * * - - - * - - ; - - - - - - = = = - * $ * @ $ * * * - - - + * - ; ; - = * * $ * @ + @ + @ @ o o ",
"$ f k 1.c p t , y t p u p s Z T T 1.d.d.0.e.c.c.d.d.c.c.j.c.d.j.4.1.T b b p p T e.t.B.A.c.l 4.c.c.A.c.d.1.n Z 4.j 2 u s f l i $ ",
"1 d 7 i j j 8 1 t j j i r u m N N m N N Z m m m ^ } } ^ ^ } %.P c c u j j 0 t j Z 5.0.0.5.u.=.} ^ P N N m j i z h e u q 7 h c - ",
"1 c 1 e 7 x t e j u j j p u } ^ ^ P } N ^ ^ c l 1.%.} } %.5.5.V c P l c s e s m Z %.} %.} %.%.} P ^ P l Z m u i j d s 7 t 5 m ; ",
", l 5 6 5 m i j m 0 c l m } %.} ^ ^ Z ^ c c m c P ^ } %.} %.5.%.P ^ ^ } l j ^ Z } } ^ Z Z k } Z P ^ Z s l m c j d l m 7 7 , N , ",
": j e 2 i N j l Z i c c P =.%.Z ^ } V ^ l d Z m N ^ %.^ } =.} } } %.P Z } %.%.Z %.} =.P ^ U =.Z Z ^ c j l j c j j l Z i 8 i N , ",
", u s c c j u i Z l m m N Z ^ Z N l j j i j l c m m N m N ^ } P Z ^ c Z %.} P } P c N N P 5.=.Z N N N N j u c c d i l m ^ Z m , ",
"@ 6 7 q t e t 6 7 6 7 8 q e 7 5 8 , ; , > , , 6 6 6 6 6 6 6 7 6 6 1 1 8 7 8 t t e q e t e q 8 7 6 6 , , - * - , @ @ - , 6 6 , o ",
"@ f e.Z.B.S.s u S.A.B.B.z.! f r u r u d c c f 4.r.t.T n 4.Q v y.n 4.j.S.r.4.z.z.B.S.j.z.z.! ! 0.n a p s s 0 r r > < f R c.A.4.@ ",
"@ r P =.Z u.j l C.V c =.N l r t e 0 r s j j m } c P Z N N l s 5.U 5.1.0.0.N } 0.0.0.%.P 5.0.5.5.U r d j j s r r 1 , s c V Z ^ > ",
", c ^ N m } i k g.c d c V Z k r r 9 y d l d c c Z Z Z N N c l U 0.0.0.0.u.Z %.0.d.0.P N Z P 1.0.b l l l d j u y 1 8 j j N c V - ",
"1 5.j l z N t s p.m j Z b r c l i r d c d r j m m Z m N %.N c j U 0.d.0.0.P %.1.0.0.m l P 1.0.5.%.} } P c e r r 7 q c c %.N m > ",
"1 0.Z P c %.i s u.P P %.U l p l Z r d Z j r k d } ^ P N c l N l U 0.d.d.d.%.0.0.p.1.U b l =.0.0.0.5.5.0.Z d t u e e } %.5.5.%.> ",
"1 d.0.1.%.U i s p.5.5.5.%.u.%.U =.u d u.d r d c 0.} U P N N ^ N } 0.0.d.d.0.0.u.d.d.d.U Z 5.0.0.0.u.u.0.b l d u 7 u 5.} 5.5.5., ",
"1 g.1.} U c y u 0.U 0.5.0.1.%.5.%.l j } p s p U u.%.P } 0.^ N c P 5.0.0.0.} 0.0.d.d.u.5.1.0.0.0.0.1.V %.l k d p 7 i 5.V %.P %., ",
"= U } c c V e r ^ V } %.0.0.N c ^ P m m l } Z =.N N Z 1.0.Z P m } 1.} P } } 0.0.1.0.u.e.0.u.1.U 5.Z s c P m j c t t Z } } c 5., ",
"@ s Z c U u.t t c c N N %.=.l l } ^ P c N 5.5.%.} %.5.u.0.%.} } P %.%.P } Z 5.0.0.5.0.0.p.d.0.1.} n c l N m m ^ i 7 c N l c =.; ",
"= k N 5.%.u.e y l l N j Z } Z } c U 1.m P u.0.0.d.0.0.1.U Z %.^ N Z 1.5.5.} 5.d.0.5.} 1.1.c.d.w.Z c l l c j N =.i 7 N l j c } > ",
", c Z 5.} u.7 e %.N c j b } U } V U 1.P 5.0.5.0.p.5.%.c c } } P P } 1.0.u.0.0.0.0.5.%.U U d.1.1.P c l j j s m %.i 6 c l m Z %., ",
", c c %.} u.i 9 b u 0 p l %.1.} %.1.1.Z } 1.1.0.0.%.Z l 0.0.P } %.1.5.5.0.0.0.0.0.0.5.%.5.1.Z V U V V l l c c =.i 8 N Z Z N } , ",
", } l c ^ u.i t P t u d c } } } P %.5.} P u.u.p.0.5.} k U %.} } } %.} 1.0.0.0.e.0.P 1.} Z V Z U U U U V V V Z } 7 8 N Z Z N ^ 1 ",
", 1.Z N } %.y r k r s j c U m P %.%.5.} P 0.d.0.0.1.U l } %.} %.} m Z } 0.e.e.0.5.U 0.1.V P U U O.U T U V V 1.U 7 q m m N Z c - ",
"1 0.Z } P ^ t e d u s k V Z V } } %.} } 5.d.d.d.0.1.5.%.u.u.%.5.d.U Z %.d.4.R U 0.5.1.V N Z U U V U U U U 1.=.5.i 8 m m ^ N s - ",
"6 u.^ V c ^ t 2 r r d l c V 1.U P ^ %.5.5.0.d.c.0.} 1.P 1.0.0.%.1.1.1.u.d.1.1.1.4.U V m V Z Z c m V U 1.1.1.P ^ i t ' j l P P , ",
"7 0.Z q 8 ^ t > r u s l l V 1.P m m ^ 5.} P 1.d.1.V } %.%.%.P Z %.1.1.0.0.0.1.4.U Z U 1.Z U 0.b c Z 5.Q V m U 5.t t =.y 6 ^ Z ; ",
"7 0.Z e 7 =.q , u e u s l U U P Z N Z U } } 1.0.%.Z } U N N N Z } U P 1.0.0.1.1.T n c 4.T U } U U 5.0.U Z V Z Z t q Z i t m N > ",
"6 0.N l c P 7 2 r e t i j c V U 1.Z l N } 1.1.1.1.P N U P N N c U U U U %.1.4.4.Z l l Z V V U U T 4.1.} P U c z , t N x ^ Z } > ",
"1 } c m c c 8 , s r u d s l c N U Z N V P P Z Z U m c Z P %.U Z U 1.U V V V Z 4.Q c l c c M Z V V } 1.1.P V c g - t m N Z N } > ",
"2 Z c m z j 8 , d y l j s j c V } Z m Z U } c N c m N U } 1.1.U Z V Z U Z c n Q Q b n Z c l V Z Z Z } } 1.U m g * u c Z N l } , ",
"6 } j m j j 8 6 p u N j j c P P %.Z c N %.5.} c c Z V U } 1.1.U n n Z U U V c Z n c Q Z b c V T U V N V U 1.m z 5 y N c l j %., ",
"6 u.c Z j l t 0 d z c u j N U Z 1.} N N %.1.%.m m m m Z } 1.U 1.c f n Z U c c T T n b Z V V V V Z Z Z c V } } N 8 r j u c j Z , ",
"6 u.^ 5.l c i r V ^ d 0 l %.} V } } } ^ Z } %.Z m j N P 5.%.Z 0.c j %.%.c z c T 4.4.T U U V c n Z U U Z N } =.Z 7 r s s Z j m , ",
"1 5.} 0.U U i u } 5.V j 1.0.} m V c 0.5.} 1.%.Z l r c 5.5.0.1.5.V V 1.P j j c c 4.e.U k U V c l Z P %.m N 5.} ^ q 4 r s Z j P , ",
"6 1.P 5.} %.y p U %.1.5.5.U c d N U 5.1.1.1.0.N m Z P 0.0.0.p.5.c N } } V m c V R U b k c %.V k 5.0.V c Z 5.} ^ t 0 p y c P } , ",
"6 d.} 0.V P i u Z N 5.0.u.V d 3 s u.%.1.%.%.0.} Z %.5.1.1.} %.%.5.0.%.} N V V Z } M c c V 1.1.p.d.%.l x P 5.Z m q 0 r 9 d %.5., ",
"7 c.0.0.1.0.i d 1.c 0.0.p.0.U s s } 0.%.P } 0.0.1.0.u.d.0.1.5.0.d.0.1.0.Z } Z N 1.U U U U U T d.5.} Z c P } l m q r y r u c 5., ",
"7 c.1.1.1.5.i s 0.0.d.0.u.0.U c j N } V c U d.d.p.1.d.d.5.U 0.0.p.0.0.0.4.0.} U 1.1.R 4.1.1.4.0.U P %.c Z P c P t 0 y s c l 1.1 ",
"6 C.%.%.1.0.i s u.0.d.d.p.0.%.U } P P } c U V.d.d.1.d.d.0.} 1.p.0.P U 1.T U } U 1.1.n V 1.U 1.0.} 5.5.1.1.=.m Z e 0 u i P c V 1 ",
"6 c.%.%.1.g.i y u.0.0.0.0.0.%.5.Z Z V 1.N V p.d.p.U U 0.5.5.0.p.U m m } 1.b Z R 0.4.Z 1.0.} 5.u.0.0.0.p.5.c c c 7 r l u c N P , ",
"7 c.U U U p.i r b n 1.0.0.0.%.0.1.U } P c n p.u.5.c c T p.0.0.0.d.0.5.0.0.V n Z e.e.e.4.0.1.1.0.u.0.0.5.V V c m 8 y U j N %.U - ",
"6 d.l } 5.5.i r n N 0.0.0.5.} %.5.%.%.} P 5.d.d.0.5.1.5.Z V } 5.u.0.0.0.0.} U U 4.1.0.! T 1.1.u.1.U =.U k c m c q u p.Z m 5.Z = ",
"7 d.c %.%.u.i u p.^ u.1.5.u.0.5.%.0.0.5.Z } d.d.0.1.0.0.V M } 0.d.0.%.0.0.1.%.5.5.T 0.4.b T 0.d.0.0.u.0.P l c l t 4 Z Z V %.P ; ",
"7 u.} k j p.i d V.P 1.u.0.d.0.Z 1.0.0.5.Z %.d.0.5.5.5.U 1.N 0.u.5.1.U 5.u.5.%.t.j.d.d.0.U Z T j.d.0.} %.l j l ^ t 0 1.c } 5.U , ",
"6 0.P c l P u s g.l b =.1.%.%.U b 0.5.} Z P 5.5.0.0.5.U 0.U d.V.1.U V } 5.%.0.c.d.d.d.0.5.1.1.c.U 1.^ l l m N } t d p.Z N V P 1 ",
"6 0.} ^ Z ^ i d u.c l 1.5.0.0.5.%.0.%.^ Z P %.1.0.} U %.0.5.d.d.0.0.1.} 1.5.1.V.d.5.d.u.5.1.u.c.1.%.n l c j m Z e k 0.N Z Z Z , ",
"7 d.1.1.P =.i p 0.U n } 5.V V P 0.5.d l } %.1.0.0.m Z 5.0.0.d.d.0.} 0.0.0.1.5.1.1.U u.p.5.0.d.p.5.0.V j m m N =.t 9 P N N P N - ",
"7 d.} p.} c u r d.0.0.1.0.U 1.5.} c p l =.5.0.0.%.Z 5.0.0.0.0.0.1.1.0.0.0.V 1.5.1.P 1.0.1.0.d.0.%.0.5.u c } N ^ e < c Z P P P - ",
"9 p.%.p.} j 2 p u.0.U c 0.u.5.} j u u j l V 0.0.1.%.u.1.P c 1.5.%.0.d.u.5.N 0.p.0.5.%.0.5.1.%.1.%.u.g.b P P l c 6 0 Z P U } ^ > ",
"6 b U 1.5.c 1 0 v u.1.V 5.1.} P c s r r i V u.n 1.0.0.1.U U U 0.0.0.R 1.} } 0.0.0.0.0.5.} 5.} U 1.u.0.Z c Z c P 7 p u.P } P Z ; ",
"1 c Z %.} l 6 r 1.%.5.=.} N } } P l u r r V u.b b u.5.} %.0.P 1.0.U V } m Z 0.0.p.5.%.1.Z u.1.Z P } } l c c j =.e u 0.P } } Z - ",
"6 0.P %.5.} q s V.%.0.} } N N P N p r r r c P } Z 1.5.%.5.%.V V 0.V 1.%.m %.0.0.1.j Z %.1.j.P c } } P c c j u l 8 i } Z P } m - ",
"1 } s l } ^ t u u.%.0.P %.l s c u r r r s l d N %.P 1.5.5.1.Z P } U Z P Z Z 5.0.} z m N 5.d.} Z U ^ m s u j e u 7 d =.m Z N j # ",
", s u Z V ^ t s 5.P } Z } s d p 9 0 0 u l } c j z l } %.%.1.1.5.V s l Z V c Z } 1.j N Z %.0.%.5.%.P l s e z j u 8 u l c N m d @ ",
", b l } V V i u p.U u.c k c l w 0 0 p n 5.0.c l d Z 0.u.p.p.u.u.5.l l U l c u.d.Z l p.0.g.c.0.5.g.l d j d P N m t 2 k } } } Z - ",
"* 6 7 t 6 6 8 - t e t 7 1 7 6 - = & 2 e t t 1 6 , 6 e t t t t t t 6 7 e t t i i q t t i i i t t t > 1 8 5 7 5 6 * + t t t t 8 @ ",
"% d j d j j 7 q b c d k d p y r t 0 9 9 7 9 < 2 e e t s d l b b l s p u 0 k k k k d j l l d k u 9 u s p 2 1 r s , 9 l l j d t + ",
", 1.g.V.p.g.i y 1.u.p.p.u.U Z c Z l c j l c s j c l =.u.c.c.C.V.V.0.p.k k } 1.1.} %.U d.g.d.u.f l V } 1.u u m u.i d p.V.V.u.5.> ",
"> N j y z =.t 9 l m Z Z N x V c l j j l Z m l z c j c ^ } 5.V c } N Z j j c P m j z j m Z P Z j c N m j t u z N t u ^ j i l ^ : ",
"> } q q 6 =.t 1 d j Z P } c %.5.P ^ m N } 5.Z m P m c Z Z 5.U 1.%.l N ^ P c N 5.N c ^ } %.%.%.c j } c N c j c %.i i =.8 t 6 ^ > ",
"- P 6 6 6 ^ t , s 0 m ^ } l j } P %.} Z ^ } N c Z N N m Z } Z 5.} j V %.P x c V l j Z Z V l Z j w l N ^ ^ c c =.i u =.6 7 1 P ; ",
"> c t 7 j ^ t 1 j s N N } l j Z } %.} ^ Z %.P m ^ Z N x N } } 1.Z j N 1.P x j c i u c c m z Z Z c P N c } m m 5.i t ' h e i N ; ",
", l m Z } l 7 1 d s c N ^ Z c V V c V c m %.%.Z Z Z l j m } 5.5.%.Z ^ =.5.c j c u s s p N Z %.0.%.^ } c m N c =.i q c m =.' c * ",
"* 0 e u j j 1 - 9 q i g j j i r t j s j l l c l z j e s d j m m c l c m m j s t t t 9 4 s j j j c c l j x x j j q > 9 7 t j t o ",
"o X o o O $ + o o o o o o o o o o O O @ @ + + O + + o + o o + O O o O O O O o o o o o o O + o o O + + o O + O o o o o o . o o o "
};
